<svg width="95" height="86" viewBox="0 0 95 86" fill="none" xmlns="http://www.w3.org/2000/svg">
<rect y="28" width="95" height="58" fill="#74C2CE"/>
<rect x="89.3999" y="69.7314" width="1.86667" height="1.86667" fill="white"/>
<rect x="90.1001" y="68.332" width="0.466667" height="4.66667" fill="white"/>
<rect x="88" y="70.8984" width="0.466667" height="4.66667" transform="rotate(-90 88 70.8984)" fill="white"/>
<rect x="88.7" y="69.9663" width="0.466667" height="0.466667" fill="white"/>
<rect x="88.4666" y="69.7324" width="0.466667" height="0.466667" fill="white"/>
<rect x="88.2334" y="69.4995" width="0.466667" height="0.466667" fill="white"/>
<rect x="91.9666" y="71.3657" width="0.466667" height="0.466667" fill="white"/>
<rect x="91.7334" y="71.1328" width="0.466667" height="0.466667" fill="white"/>
<rect x="91.5" y="70.8994" width="0.466667" height="0.466667" fill="white"/>
<rect x="91.0332" y="72.2988" width="0.466667" height="0.466667" fill="white"/>
<rect x="90.8" y="72.0659" width="0.466667" height="0.466667" fill="white"/>
<rect x="90.5667" y="71.8335" width="0.466667" height="0.466667" fill="white"/>
<rect x="89.6333" y="69.0332" width="0.466667" height="0.466667" fill="white"/>
<rect x="89.3999" y="68.7993" width="0.466667" height="0.466667" fill="white"/>
<rect x="89.1667" y="68.5664" width="0.466667" height="0.466667" fill="white"/>
<rect width="0.466667" height="0.466667" transform="matrix(-1 0 0 1 91.0332 69.0332)" fill="white"/>
<rect width="0.466667" height="0.466667" transform="matrix(-1 0 0 1 91.2666 68.7993)" fill="white"/>
<rect width="0.466667" height="0.466667" transform="matrix(-1 0 0 1 91.5 68.5664)" fill="white"/>
<rect width="0.466667" height="0.466667" transform="matrix(-1 0 0 1 91.9666 69.9663)" fill="white"/>
<rect width="0.466667" height="0.466667" transform="matrix(-1 0 0 1 92.2 69.7324)" fill="white"/>
<rect width="0.466667" height="0.466667" transform="matrix(-1 0 0 1 92.4333 69.4995)" fill="white"/>
<rect width="0.466667" height="0.466667" transform="matrix(-1 0 0 1 89.6333 72.2988)" fill="white"/>
<rect width="0.466667" height="0.466667" transform="matrix(-1 0 0 1 89.8667 72.0659)" fill="white"/>
<rect width="0.466667" height="0.466667" transform="matrix(-1 0 0 1 90.0999 71.8335)" fill="white"/>
<rect width="0.466667" height="0.466667" transform="matrix(-1 0 0 1 88.7 71.3657)" fill="white"/>
<rect width="0.466667" height="0.466667" transform="matrix(-1 0 0 1 88.9333 71.1328)" fill="white"/>
<rect width="0.466667" height="0.466667" transform="matrix(-1 0 0 1 89.1667 70.8994)" fill="white"/>
<rect x="6.93359" y="75.6006" width="3.46667" height="3.46667" fill="white"/>
<rect x="8.23291" y="73" width="0.866667" height="8.66667" fill="white"/>
<rect x="4.33325" y="77.7666" width="0.866667" height="8.66667" transform="rotate(-90 4.33325 77.7666)" fill="white"/>
<rect x="5.63281" y="76.0332" width="0.866667" height="0.866667" fill="white"/>
<rect x="5.20044" y="75.6006" width="0.866667" height="0.866667" fill="white"/>
<rect x="4.76685" y="75.167" width="0.866667" height="0.866667" fill="white"/>
<rect x="11.7004" y="78.6338" width="0.866667" height="0.866667" fill="white"/>
<rect x="11.2668" y="78.2002" width="0.866667" height="0.866667" fill="white"/>
<rect x="10.8333" y="77.7666" width="0.866667" height="0.866667" fill="white"/>
<rect x="9.96606" y="80.3667" width="0.866667" height="0.866667" fill="white"/>
<rect x="9.53369" y="79.9331" width="0.866667" height="0.866667" fill="white"/>
<rect x="9.1001" y="79.4995" width="0.866667" height="0.866667" fill="white"/>
<rect x="7.36719" y="74.2998" width="0.866667" height="0.866667" fill="white"/>
<rect x="6.93359" y="73.8662" width="0.866667" height="0.866667" fill="white"/>
<rect x="6.5" y="73.4326" width="0.866667" height="0.866667" fill="white"/>
<rect width="0.866667" height="0.866667" transform="matrix(-1 0 0 1 9.96606 74.2998)" fill="white"/>
<rect width="0.866667" height="0.866667" transform="matrix(-1 0 0 1 10.3997 73.8662)" fill="white"/>
<rect width="0.866667" height="0.866667" transform="matrix(-1 0 0 1 10.8333 73.4326)" fill="white"/>
<rect width="0.866667" height="0.866667" transform="matrix(-1 0 0 1 11.7004 76.0332)" fill="white"/>
<rect width="0.866667" height="0.866667" transform="matrix(-1 0 0 1 12.1328 75.6006)" fill="white"/>
<rect width="0.866667" height="0.866667" transform="matrix(-1 0 0 1 12.5664 75.167)" fill="white"/>
<rect width="0.866667" height="0.866667" transform="matrix(-1 0 0 1 7.36719 80.3667)" fill="white"/>
<rect width="0.866667" height="0.866667" transform="matrix(-1 0 0 1 7.79932 79.9331)" fill="white"/>
<rect width="0.866667" height="0.866667" transform="matrix(-1 0 0 1 8.23291 79.4995)" fill="white"/>
<rect width="0.866667" height="0.866667" transform="matrix(-1 0 0 1 5.63281 78.6338)" fill="white"/>
<rect width="0.866667" height="0.866667" transform="matrix(-1 0 0 1 6.06641 78.2002)" fill="white"/>
<rect width="0.866667" height="0.866667" transform="matrix(-1 0 0 1 6.5 77.7666)" fill="white"/>
<rect x="86.8333" y="77.8345" width="4" height="4" fill="white"/>
<rect x="87.3333" y="77.334" width="3" height="5" fill="white"/>
<rect x="86.3333" y="78.0825" width="5" height="3.25" fill="white"/>
<rect x="4.30005" y="59.6323" width="2.4" height="2.4" fill="white"/>
<rect x="4.6001" y="59.333" width="1.8" height="3" fill="white"/>
<rect x="4" y="59.7827" width="3" height="1.95" fill="white"/>
<rect x="72" y="79.332" width="2.66667" height="2.66667" fill="white"/>
<rect x="71.6665" y="79.666" width="2.66667" height="2" fill="white"/>
<rect x="71.3333" y="79.9995" width="2.66667" height="1.33333" fill="white"/>
<rect x="71.3333" y="79.9995" width="2.66667" height="1.33333" fill="white"/>
<rect x="72.3333" y="79.666" width="2.66667" height="2" fill="white"/>
<rect x="72.6665" y="79.9995" width="2.66667" height="1.33333" fill="white"/>
<rect x="72.3333" y="81.666" width="2.66667" height="2" transform="rotate(-90 72.3333 81.666)" fill="white"/>
<rect x="72.6653" y="81.332" width="2.66667" height="1.33333" transform="rotate(-90 72.6653 81.332)" fill="white"/>
<rect x="74.3333" y="79.666" width="2.66667" height="2" transform="rotate(90 74.3333 79.666)" fill="white"/>
<rect x="74" y="79.9995" width="2.66667" height="1.33333" transform="rotate(90 74 79.9995)" fill="white"/>
<rect x="87.4446" y="62.7769" width="1.77778" height="1.77778" fill="white"/>
<rect x="87.2222" y="62.999" width="1.77778" height="1.33333" fill="white"/>
<rect x="87" y="63.2222" width="1.77778" height="0.888889" fill="white"/>
<rect x="87" y="63.2222" width="1.77778" height="0.888889" fill="white"/>
<rect x="87.6667" y="62.999" width="1.77778" height="1.33333" fill="white"/>
<rect x="87.8889" y="63.2222" width="1.77778" height="0.888889" fill="white"/>
<rect x="87.6667" y="64.333" width="1.77778" height="1.33333" transform="rotate(-90 87.6667 64.333)" fill="white"/>
<rect x="87.8882" y="64.1108" width="1.77778" height="0.888889" transform="rotate(-90 87.8882 64.1108)" fill="white"/>
<rect x="89" y="62.999" width="1.77778" height="1.33333" transform="rotate(90 89 62.999)" fill="white"/>
<rect x="88.7778" y="63.2222" width="1.77778" height="0.888889" transform="rotate(90 88.7778 63.2222)" fill="white"/>
<rect x="9.68262" y="65.6836" width="3.30159" height="3.30159" fill="white"/>
<rect x="10.4446" y="64.667" width="1.77778" height="3.30159" fill="white"/>
<rect x="10.4446" y="66.6992" width="1.77778" height="3.30159" fill="white"/>
<rect x="8.66675" y="68.2227" width="1.77778" height="3.30159" transform="rotate(-90 8.66675 68.2227)" fill="white"/>
<rect x="10.6985" y="68.2227" width="1.77778" height="3.30159" transform="rotate(-90 10.6985 68.2227)" fill="white"/>
<rect x="80.0322" y="74.0312" width="2.26984" height="2.26942" fill="white"/>
<rect x="80.5554" y="73.334" width="1.22222" height="2.26942" fill="white"/>
<rect x="80.5554" y="74.7305" width="1.22222" height="2.26942" fill="white"/>
<rect x="79.3333" y="75.7778" width="1.22199" height="2.26984" transform="rotate(-90 79.3333 75.7778)" fill="white"/>
<rect x="80.73" y="75.7778" width="1.22199" height="2.26984" transform="rotate(-90 80.73 75.7778)" fill="white"/>
<rect x="20" width="55" height="50" fill="#9BEAF6"/>
<rect x="15" y="5" width="65" height="40" fill="#9BEAF6"/>
<rect x="10" y="10" width="75" height="30" fill="#9BEAF6"/>
<rect x="5" y="15" width="85" height="20" fill="#9BEAF6"/>
<rect y="20" width="95" height="10" fill="#9BEAF6"/>
</svg>
