<svg width="375" height="182" viewBox="0 0 375 182" fill="none" xmlns="http://www.w3.org/2000/svg">
<path opacity="0.1" fill-rule="evenodd" clip-rule="evenodd" d="M0 0H201.36C214.968 0 226 11.0317 226 24.64V73.557H275.105C288.713 73.557 299.745 84.5887 299.745 98.197V114.865C299.745 116.626 299.56 118.344 299.209 120H375V182H286.64C273.032 182 262 170.968 262 157.36V144.64C262 142.879 262.185 141.161 262.536 139.505H142.235C128.627 139.505 117.595 128.473 117.595 114.865V107H0V0ZM0 24.64C0 11.0317 11.0317 0 24.64 0H201.36C214.968 0 226 11.0317 226 24.64V48.917C226 62.5253 237.032 73.557 250.64 73.557H276.523C289.348 73.557 299.745 83.9536 299.745 96.7785V96.7785C299.745 109.603 310.142 120 322.966 120H350.36C363.968 120 375 131.032 375 144.64V157.36C375 170.968 363.968 182 350.36 182H283.248C271.513 182 262 172.487 262 160.752V160.752C262 149.018 252.487 139.505 240.752 139.505H133.847C124.872 139.505 117.595 132.228 117.595 123.252V123.252C117.595 114.276 110.319 107 101.343 107H24.64C11.0317 107 0 95.9683 0 82.36V24.64Z" fill="white"/>
<path opacity="0.1" fill-rule="evenodd" clip-rule="evenodd" d="M0 24.64C0 11.0317 11.0317 0 24.64 0H201.36C214.968 0 226 11.0317 226 24.64V73.557H275.105C288.713 73.557 299.745 84.5887 299.745 98.197V114.865C299.745 116.626 299.56 118.344 299.209 120H350.36C363.968 120 375 131.032 375 144.64V157.36C375 170.968 363.968 182 350.36 182H286.64C273.032 182 262 170.968 262 157.36V144.64C262 142.879 262.185 141.161 262.536 139.505H142.235C128.627 139.505 117.595 128.473 117.595 114.865V107H24.64C11.0317 107 0 95.9683 0 82.36V24.64Z" fill="white"/>
</svg>
