<svg width="512" height="183" viewBox="0 0 512 183" fill="none" xmlns="http://www.w3.org/2000/svg">
<path opacity="0.1" fill-rule="evenodd" clip-rule="evenodd" d="M0 24.6398C0 11.0316 11.0316 0 24.6398 0H269.47C283.078 0 294.109 11.0316 294.109 24.6398V48.9172C294.109 62.5254 305.141 73.557 318.749 73.557H344.555C357.362 73.557 367.745 83.9397 367.745 96.7473C367.745 109.555 378.128 119.938 390.935 119.938H487.36C500.968 119.938 512 130.969 512 144.577V157.622C512 171.23 500.968 182.262 487.36 182.262H351.229C339.421 182.262 329.85 172.69 329.85 160.883C329.85 149.076 320.278 139.505 308.471 139.505H202.082C192.977 139.505 185.595 132.123 185.595 123.018C185.595 113.912 178.214 106.531 169.108 106.531H24.6398C11.0316 106.531 0 95.4992 0 81.891V24.6398Z" fill="white"/>
</svg>
