<svg width="137" height="217" viewBox="0 0 137 217" fill="none" xmlns="http://www.w3.org/2000/svg">
<rect x="73.8279" y="171.249" width="11.4166" height="11.4166" fill="#B1642C"/>
<rect x="73.8279" y="159.833" width="11.4166" height="11.4166" fill="#B1642C"/>
<rect x="85.2446" y="171.249" width="11.4166" height="11.4166" fill="#8F5025"/>
<rect x="85.2446" y="159.833" width="11.4166" height="11.4166" fill="#8F5025"/>
<rect x="73.8279" y="148.417" width="11.4166" height="11.4166" fill="#8F5025"/>
<rect x="73.8279" y="137" width="11.4166" height="11.4166" fill="#8F5025"/>
<rect x="85.2446" y="148.417" width="11.4166" height="11.4166" fill="#8F5025"/>
<rect x="85.2446" y="137" width="11.4166" height="11.4166" fill="#8F5025"/>
<rect x="73.8279" y="125.582" width="11.4166" height="11.4166" fill="#8F5025"/>
<rect x="73.8279" y="114.167" width="11.4166" height="11.4166" fill="#8F5025"/>
<rect x="85.2446" y="125.582" width="11.4166" height="11.4166" fill="#8F5025"/>
<rect x="85.2446" y="114.167" width="11.4166" height="11.4166" fill="#8F5025"/>
<rect x="73.8279" y="102.749" width="11.4166" height="11.4166" fill="#8F5025"/>
<rect x="73.8279" y="91.333" width="11.4166" height="11.4166" fill="#7E431B"/>
<rect x="85.2446" y="102.749" width="11.4166" height="11.4166" fill="#7E431B"/>
<rect x="85.2446" y="91.333" width="11.4166" height="11.4166" fill="#7E431B"/>
<rect x="73.8279" y="205.5" width="11.4166" height="11.4166" fill="#B1642C"/>
<rect x="85.2446" y="205.5" width="11.4166" height="11.4166" fill="#8F5025"/>
<rect x="73.8279" y="194.082" width="11.4166" height="11.4166" fill="#B1642C"/>
<rect x="73.8279" y="182.667" width="11.4166" height="11.4166" fill="#B1642C"/>
<rect x="85.2446" y="194.082" width="11.4166" height="11.4166" fill="#8F5025"/>
<rect x="85.2446" y="182.667" width="11.4166" height="11.4166" fill="#8F5025"/>
<rect x="45.6667" y="79.916" width="11.4166" height="11.4166" fill="#DE1E43"/>
<rect x="45.6667" y="68.5" width="11.4166" height="11.4166" fill="#404040"/>
<rect x="45.6667" y="57.083" width="11.4166" height="11.4166" fill="#404040"/>
<rect x="45.6667" y="45.667" width="11.4166" height="11.4166" fill="#404040"/>
<rect x="45.6667" y="34.249" width="11.4166" height="11.4166" fill="#404040"/>
<rect x="22.8335" y="79.916" width="11.4166" height="11.4166" fill="#DE1E43"/>
<rect x="22.8335" y="68.5" width="11.4166" height="11.4166" fill="#404040"/>
<rect x="34.25" y="79.916" width="11.4166" height="11.4166" fill="#DE1E43"/>
<rect x="34.25" y="91.334" width="11.4166" height="11.4166" fill="#DE1E43"/>
<rect x="11.4167" y="91.334" width="11.4166" height="11.4166" fill="#DE1E43"/>
<rect x="22.8335" y="91.334" width="11.4166" height="11.4166" fill="#DE1E43"/>
<rect x="11.4167" y="79.916" width="11.4166" height="11.4166" fill="#DE1E43"/>
<rect y="91.334" width="11.4166" height="11.4166" fill="#DE1E43"/>
<rect x="34.25" y="68.5" width="11.4166" height="11.4166" fill="#404040"/>
<rect x="22.8335" y="57.083" width="11.4166" height="11.4166" fill="#404040"/>
<rect x="22.8335" y="45.667" width="11.4166" height="11.4166" fill="#404040"/>
<rect x="34.25" y="57.083" width="11.4166" height="11.4166" fill="#404040"/>
<rect x="34.25" y="45.667" width="11.4166" height="11.4166" fill="#404040"/>
<rect x="34.25" y="34.249" width="11.4166" height="11.4166" fill="#404040"/>
<rect x="23" y="52" width="2.15789" height="2.15789" fill="#21AFC5"/>
<rect x="25.158" y="52" width="2.15789" height="2.15789" fill="#21AFC5"/>
<rect x="27.3157" y="52" width="2.15789" height="2.15789" fill="#21AFC5"/>
<rect x="29.4736" y="52" width="2.15789" height="2.15789" fill="#21AFC5"/>
<rect x="31.6316" y="52" width="2.15789" height="2.15789" fill="#21AFC5"/>
<rect x="33.7896" y="52" width="2.15789" height="2.15789" fill="#21AFC5"/>
<rect x="35.9473" y="52" width="2.15789" height="2.15789" fill="#21AFC5"/>
<rect x="38.1052" y="52" width="2.15789" height="2.15789" fill="#21AFC5"/>
<rect x="40.2632" y="52" width="2.15789" height="2.15789" fill="#21AFC5"/>
<rect x="42.4211" y="52" width="2.15789" height="2.15789" fill="#21AFC5"/>
<rect x="44.5789" y="52" width="2.15789" height="2.15789" fill="#21AFC5"/>
<rect x="46.7368" y="52" width="2.15789" height="2.15789" fill="#21AFC5"/>
<rect x="48.8948" y="52" width="2.15789" height="2.15789" fill="#21AFC5"/>
<rect x="51.0527" y="52" width="2.15789" height="2.15789" fill="#21AFC5"/>
<rect x="53.2104" y="52" width="2.15789" height="2.15789" fill="#21AFC5"/>
<rect x="55.3684" y="52" width="2.15789" height="2.15789" fill="#21AFC5"/>
<rect x="57.5264" y="52" width="2.15789" height="2.15789" fill="#21AFC5"/>
<rect x="59.6843" y="52" width="2.15789" height="2.15789" fill="#21AFC5"/>
<rect x="61.842" y="52" width="2.15789" height="2.15789" fill="#21AFC5"/>
<rect x="23" y="54.1582" width="2.15789" height="2.15789" fill="#21AFC5"/>
<rect x="25.158" y="54.1582" width="2.15789" height="2.15789" fill="#21AFC5"/>
<rect x="27.3157" y="54.1582" width="2.15789" height="2.15789" fill="#21AFC5"/>
<rect x="29.4736" y="54.1582" width="2.15789" height="2.15789" fill="#21AFC5"/>
<rect x="31.6316" y="54.1582" width="2.15789" height="2.15789" fill="#21AFC5"/>
<rect x="33.7896" y="54.1582" width="2.15789" height="2.15789" fill="#21AFC5"/>
<rect x="35.9473" y="54.1582" width="2.15789" height="2.15789" fill="#21AFC5"/>
<rect x="38.1052" y="54.1582" width="2.15789" height="2.15789" fill="#21AFC5"/>
<rect x="40.2632" y="54.1582" width="2.15789" height="2.15789" fill="#21AFC5"/>
<rect x="42.4211" y="54.1582" width="2.15789" height="2.15789" fill="#21AFC5"/>
<rect x="44.5789" y="54.1582" width="2.15789" height="2.15789" fill="#21AFC5"/>
<rect x="46.7368" y="54.1582" width="2.15789" height="2.15789" fill="#21AFC5"/>
<rect x="48.8948" y="54.1582" width="2.15789" height="2.15789" fill="#21AFC5"/>
<rect x="51.0527" y="54.1582" width="2.15789" height="2.15789" fill="#21AFC5"/>
<rect x="53.2104" y="54.1582" width="2.15789" height="2.15789" fill="#21AFC5"/>
<rect x="55.3684" y="54.1582" width="2.15789" height="2.15789" fill="#21AFC5"/>
<rect x="57.5264" y="54.1582" width="2.15789" height="2.15789" fill="#21AFC5"/>
<rect x="59.6843" y="54.1582" width="2.15789" height="2.15789" fill="#21AFC5"/>
<rect x="61.842" y="54.1582" width="2.15789" height="2.15789" fill="#21AFC5"/>
<rect x="25.158" y="56.3159" width="2.15789" height="2.15789" fill="#21AFC5"/>
<rect x="27.3157" y="56.3159" width="2.15789" height="2.15789" fill="#21AFC5"/>
<rect x="29.4736" y="56.3159" width="2.15789" height="2.15789" fill="#21AFC5"/>
<rect x="31.6316" y="56.3159" width="2.15789" height="2.15789" fill="#21AFC5"/>
<rect x="33.7896" y="56.3159" width="2.15789" height="2.15789" fill="#21AFC5"/>
<rect x="35.9473" y="56.3159" width="2.15789" height="2.15789" fill="#21AFC5"/>
<rect x="38.1052" y="56.3159" width="2.15789" height="2.15789" fill="#21AFC5"/>
<rect x="40.2632" y="56.3159" width="2.15789" height="2.15789" fill="#21AFC5"/>
<rect x="42.4211" y="56.3159" width="2.15789" height="2.15789" fill="#21AFC5"/>
<rect x="44.5789" y="56.3159" width="2.15789" height="2.15789" fill="#21AFC5"/>
<rect x="46.7368" y="56.3159" width="2.15789" height="2.15789" fill="#21AFC5"/>
<rect x="48.8948" y="56.3159" width="2.15789" height="2.15789" fill="#21AFC5"/>
<rect x="51.0527" y="56.3159" width="2.15789" height="2.15789" fill="#21AFC5"/>
<rect x="53.2104" y="56.3159" width="2.15789" height="2.15789" fill="#21AFC5"/>
<rect x="55.3684" y="56.3159" width="2.15789" height="2.15789" fill="#21AFC5"/>
<rect x="57.5264" y="56.3159" width="2.15789" height="2.15789" fill="#21AFC5"/>
<rect x="59.6843" y="56.3159" width="2.15789" height="2.15789" fill="#21AFC5"/>
<rect x="27.3157" y="58.4736" width="2.15789" height="2.15789" fill="#21AFC5"/>
<rect x="29.4736" y="58.4736" width="2.15789" height="2.15789" fill="#21AFC5"/>
<rect x="31.6316" y="58.4736" width="2.15789" height="2.15789" fill="#21AFC5"/>
<rect x="33.7896" y="58.4736" width="2.15789" height="2.15789" fill="#21AFC5"/>
<rect x="35.9473" y="58.4736" width="2.15789" height="2.15789" fill="#21AFC5"/>
<rect x="38.1052" y="58.4736" width="2.15789" height="2.15789" fill="#21AFC5"/>
<rect x="40.2632" y="58.4736" width="2.15789" height="2.15789" fill="#21AFC5"/>
<rect x="42.4211" y="58.4736" width="2.15789" height="2.15789" fill="#21AFC5"/>
<rect x="44.5789" y="58.4736" width="2.15789" height="2.15789" fill="#21AFC5"/>
<rect x="46.7368" y="58.4736" width="2.15789" height="2.15789" fill="#21AFC5"/>
<rect x="48.8948" y="58.4736" width="2.15789" height="2.15789" fill="#21AFC5"/>
<rect x="51.0527" y="58.4736" width="2.15789" height="2.15789" fill="#21AFC5"/>
<rect x="53.2104" y="58.4736" width="2.15789" height="2.15789" fill="#21AFC5"/>
<rect x="55.3684" y="58.4736" width="2.15789" height="2.15789" fill="#21AFC5"/>
<rect x="57.5264" y="58.4736" width="2.15789" height="2.15789" fill="#21AFC5"/>
<rect x="29.4736" y="60.6318" width="2.15789" height="2.15789" fill="#21AFC5"/>
<rect x="31.6316" y="60.6318" width="2.15789" height="2.15789" fill="#21AFC5"/>
<rect x="33.7896" y="60.6318" width="2.15789" height="2.15789" fill="#21AFC5"/>
<rect x="35.9473" y="60.6318" width="2.15789" height="2.15789" fill="#21AFC5"/>
<rect x="38.1052" y="60.6318" width="2.15789" height="2.15789" fill="#21AFC5"/>
<rect x="40.2632" y="60.6318" width="2.15789" height="2.15789" fill="#21AFC5"/>
<rect x="42.4211" y="60.6318" width="2.15789" height="2.15789" fill="#21AFC5"/>
<rect x="44.5789" y="60.6318" width="2.15789" height="2.15789" fill="#21AFC5"/>
<rect x="46.7368" y="60.6318" width="2.15789" height="2.15789" fill="#21AFC5"/>
<rect x="48.8948" y="60.6318" width="2.15789" height="2.15789" fill="#21AFC5"/>
<rect x="51.0527" y="60.6318" width="2.15789" height="2.15789" fill="#21AFC5"/>
<rect x="53.2104" y="60.6318" width="2.15789" height="2.15789" fill="#21AFC5"/>
<rect x="55.3684" y="60.6318" width="2.15789" height="2.15789" fill="#21AFC5"/>
<rect x="31.6316" y="62.7896" width="2.15789" height="2.15789" fill="#21AFC5"/>
<rect x="33.7896" y="62.7896" width="2.15789" height="2.15789" fill="#21AFC5"/>
<rect x="35.9473" y="62.7896" width="2.15789" height="2.15789" fill="#21AFC5"/>
<rect x="38.1052" y="62.7896" width="2.15789" height="2.15789" fill="#21AFC5"/>
<rect x="40.2632" y="62.7896" width="2.15789" height="2.15789" fill="#21AFC5"/>
<rect x="42.4211" y="62.7896" width="2.15789" height="2.15789" fill="#21AFC5"/>
<rect x="44.5789" y="62.7896" width="2.15789" height="2.15789" fill="#21AFC5"/>
<rect x="46.7368" y="62.7896" width="2.15789" height="2.15789" fill="#21AFC5"/>
<rect x="48.8948" y="62.7896" width="2.15789" height="2.15789" fill="#21AFC5"/>
<rect x="51.0527" y="62.7896" width="2.15789" height="2.15789" fill="#21AFC5"/>
<rect x="53.2104" y="62.7896" width="2.15789" height="2.15789" fill="#21AFC5"/>
<rect x="23" y="77.8955" width="2.15789" height="2.15789" fill="#74C2CE"/>
<rect x="25.158" y="77.8955" width="2.15789" height="2.15789" fill="#74C2CE"/>
<rect x="27.3157" y="77.8955" width="2.15789" height="2.15789" fill="#74C2CE"/>
<rect x="29.4736" y="77.8955" width="2.15789" height="2.15789" fill="#74C2CE"/>
<rect x="31.6316" y="77.8955" width="2.15789" height="2.15789" fill="#74C2CE"/>
<rect x="33.7896" y="77.8955" width="2.15789" height="2.15789" fill="#74C2CE"/>
<rect x="35.9473" y="77.8955" width="2.15789" height="2.15789" fill="#74C2CE"/>
<rect x="38.1052" y="77.8955" width="2.15789" height="2.15789" fill="#74C2CE"/>
<rect x="40.2632" y="77.8955" width="2.15789" height="2.15789" fill="#74C2CE"/>
<rect x="42.4211" y="77.8955" width="2.15789" height="2.15789" fill="#74C2CE"/>
<rect x="44.5789" y="77.8955" width="2.15789" height="2.15789" fill="#74C2CE"/>
<rect x="46.7368" y="77.8955" width="2.15789" height="2.15789" fill="#74C2CE"/>
<rect x="48.8948" y="77.8955" width="2.15789" height="2.15789" fill="#74C2CE"/>
<rect x="51.0527" y="77.8955" width="2.15789" height="2.15789" fill="#74C2CE"/>
<rect x="53.2104" y="77.8955" width="2.15789" height="2.15789" fill="#74C2CE"/>
<rect x="55.3684" y="77.8955" width="2.15789" height="2.15789" fill="#74C2CE"/>
<rect x="57.5264" y="77.8955" width="2.15789" height="2.15789" fill="#74C2CE"/>
<rect x="59.6843" y="77.8955" width="2.15789" height="2.15789" fill="#74C2CE"/>
<rect x="61.842" y="77.8955" width="2.15789" height="2.15789" fill="#74C2CE"/>
<rect x="23" y="56.3164" width="2.15789" height="2.15789" fill="#74C2CE"/>
<rect x="61.842" y="56.3164" width="2.15789" height="2.15789" fill="#74C2CE"/>
<rect x="23" y="58.4741" width="2.15789" height="2.15789" fill="#74C2CE"/>
<rect x="25.158" y="58.4741" width="2.15789" height="2.15789" fill="#74C2CE"/>
<rect x="59.6843" y="58.4741" width="2.15789" height="2.15789" fill="#74C2CE"/>
<rect x="61.842" y="58.4741" width="2.15789" height="2.15789" fill="#74C2CE"/>
<rect x="23" y="60.6323" width="2.15789" height="2.15789" fill="#74C2CE"/>
<rect x="25.158" y="60.6323" width="2.15789" height="2.15789" fill="#74C2CE"/>
<rect x="27.3157" y="60.6323" width="2.15789" height="2.15789" fill="#74C2CE"/>
<rect x="57.5264" y="60.6323" width="2.15789" height="2.15789" fill="#74C2CE"/>
<rect x="59.6843" y="60.6323" width="2.15789" height="2.15789" fill="#74C2CE"/>
<rect x="61.842" y="60.6323" width="2.15789" height="2.15789" fill="#74C2CE"/>
<rect x="23" y="62.79" width="2.15789" height="2.15789" fill="#74C2CE"/>
<rect x="25.158" y="62.79" width="2.15789" height="2.15789" fill="#74C2CE"/>
<rect x="27.3157" y="62.79" width="2.15789" height="2.15789" fill="#74C2CE"/>
<rect x="29.4736" y="62.79" width="2.15789" height="2.15789" fill="#74C2CE"/>
<rect x="55.3684" y="62.79" width="2.15789" height="2.15789" fill="#74C2CE"/>
<rect x="57.5264" y="62.79" width="2.15789" height="2.15789" fill="#74C2CE"/>
<rect x="59.6843" y="62.79" width="2.15789" height="2.15789" fill="#74C2CE"/>
<rect x="61.842" y="62.79" width="2.15789" height="2.15789" fill="#74C2CE"/>
<rect x="23" y="64.9478" width="2.15789" height="2.15789" fill="#74C2CE"/>
<rect x="25.158" y="64.9478" width="2.15789" height="2.15789" fill="#74C2CE"/>
<rect x="27.3157" y="64.9478" width="2.15789" height="2.15789" fill="#74C2CE"/>
<rect x="29.4736" y="64.9478" width="2.15789" height="2.15789" fill="#74C2CE"/>
<rect x="31.6316" y="64.9478" width="2.15789" height="2.15789" fill="#74C2CE"/>
<rect x="33.7896" y="64.9478" width="2.15789" height="2.15789" fill="#74C2CE"/>
<rect x="35.9473" y="64.9478" width="2.15789" height="2.15789" fill="#74C2CE"/>
<rect x="38.1052" y="64.9478" width="2.15789" height="2.15789" fill="#74C2CE"/>
<rect x="40.2632" y="64.9478" width="2.15789" height="2.15789" fill="#74C2CE"/>
<rect x="42.4211" y="64.9478" width="2.15789" height="2.15789" fill="#74C2CE"/>
<rect x="44.5789" y="64.9478" width="2.15789" height="2.15789" fill="#74C2CE"/>
<rect x="46.7368" y="64.9478" width="2.15789" height="2.15789" fill="#74C2CE"/>
<rect x="48.8948" y="64.9478" width="2.15789" height="2.15789" fill="#74C2CE"/>
<rect x="51.0527" y="64.9478" width="2.15789" height="2.15789" fill="#74C2CE"/>
<rect x="53.2104" y="64.9478" width="2.15789" height="2.15789" fill="#74C2CE"/>
<rect x="55.3684" y="64.9478" width="2.15789" height="2.15789" fill="#74C2CE"/>
<rect x="57.5264" y="64.9478" width="2.15789" height="2.15789" fill="#74C2CE"/>
<rect x="59.6843" y="64.9478" width="2.15789" height="2.15789" fill="#74C2CE"/>
<rect x="61.842" y="64.9478" width="2.15789" height="2.15789" fill="#74C2CE"/>
<rect x="23" y="67.106" width="2.15789" height="2.15789" fill="#74C2CE"/>
<rect x="25.158" y="67.106" width="2.15789" height="2.15789" fill="#74C2CE"/>
<rect x="27.3157" y="67.106" width="2.15789" height="2.15789" fill="#74C2CE"/>
<rect x="29.4736" y="67.106" width="2.15789" height="2.15789" fill="#74C2CE"/>
<rect x="31.6316" y="67.106" width="2.15789" height="2.15789" fill="#74C2CE"/>
<rect x="33.7896" y="67.106" width="2.15789" height="2.15789" fill="#74C2CE"/>
<rect x="35.9473" y="67.106" width="2.15789" height="2.15789" fill="#74C2CE"/>
<rect x="38.1052" y="67.106" width="2.15789" height="2.15789" fill="#74C2CE"/>
<rect x="40.2632" y="67.106" width="2.15789" height="2.15789" fill="#74C2CE"/>
<rect x="42.4211" y="67.106" width="2.15789" height="2.15789" fill="#74C2CE"/>
<rect x="44.5789" y="67.106" width="2.15789" height="2.15789" fill="#74C2CE"/>
<rect x="46.7368" y="67.106" width="2.15789" height="2.15789" fill="#74C2CE"/>
<rect x="48.8948" y="67.106" width="2.15789" height="2.15789" fill="#74C2CE"/>
<rect x="51.0527" y="67.106" width="2.15789" height="2.15789" fill="#74C2CE"/>
<rect x="53.2104" y="67.106" width="2.15789" height="2.15789" fill="#74C2CE"/>
<rect x="55.3684" y="67.106" width="2.15789" height="2.15789" fill="#74C2CE"/>
<rect x="57.5264" y="67.106" width="2.15789" height="2.15789" fill="#74C2CE"/>
<rect x="59.6843" y="67.106" width="2.15789" height="2.15789" fill="#74C2CE"/>
<rect x="61.842" y="67.106" width="2.15789" height="2.15789" fill="#74C2CE"/>
<rect x="23" y="69.2637" width="2.15789" height="2.15789" fill="#74C2CE"/>
<rect x="25.158" y="69.2637" width="2.15789" height="2.15789" fill="#74C2CE"/>
<rect x="27.3157" y="69.2637" width="2.15789" height="2.15789" fill="#74C2CE"/>
<rect x="29.4736" y="69.2637" width="2.15789" height="2.15789" fill="#74C2CE"/>
<rect x="31.6316" y="69.2637" width="2.15789" height="2.15789" fill="#74C2CE"/>
<rect x="33.7896" y="69.2637" width="2.15789" height="2.15789" fill="#74C2CE"/>
<rect x="35.9473" y="69.2637" width="2.15789" height="2.15789" fill="#74C2CE"/>
<rect x="38.1052" y="69.2637" width="2.15789" height="2.15789" fill="#74C2CE"/>
<rect x="40.2632" y="69.2637" width="2.15789" height="2.15789" fill="#74C2CE"/>
<rect x="42.4211" y="69.2637" width="2.15789" height="2.15789" fill="#74C2CE"/>
<rect x="44.5789" y="69.2637" width="2.15789" height="2.15789" fill="#74C2CE"/>
<rect x="46.7368" y="69.2637" width="2.15789" height="2.15789" fill="#74C2CE"/>
<rect x="48.8948" y="69.2637" width="2.15789" height="2.15789" fill="#74C2CE"/>
<rect x="51.0527" y="69.2637" width="2.15789" height="2.15789" fill="#74C2CE"/>
<rect x="53.2104" y="69.2637" width="2.15789" height="2.15789" fill="#74C2CE"/>
<rect x="55.3684" y="69.2637" width="2.15789" height="2.15789" fill="#74C2CE"/>
<rect x="57.5264" y="69.2637" width="2.15789" height="2.15789" fill="#74C2CE"/>
<rect x="59.6843" y="69.2637" width="2.15789" height="2.15789" fill="#74C2CE"/>
<rect x="61.842" y="69.2637" width="2.15789" height="2.15789" fill="#74C2CE"/>
<rect x="23" y="71.4219" width="2.15789" height="2.15789" fill="#74C2CE"/>
<rect x="25.158" y="71.4219" width="2.15789" height="2.15789" fill="#74C2CE"/>
<rect x="27.3157" y="71.4219" width="2.15789" height="2.15789" fill="#74C2CE"/>
<rect x="29.4736" y="71.4219" width="2.15789" height="2.15789" fill="#74C2CE"/>
<rect x="31.6316" y="71.4219" width="2.15789" height="2.15789" fill="#74C2CE"/>
<rect x="33.7896" y="71.4219" width="2.15789" height="2.15789" fill="#74C2CE"/>
<rect x="35.9473" y="71.4219" width="2.15789" height="2.15789" fill="#74C2CE"/>
<rect x="38.1052" y="71.4219" width="2.15789" height="2.15789" fill="#74C2CE"/>
<rect x="40.2632" y="71.4219" width="2.15789" height="2.15789" fill="#74C2CE"/>
<rect x="42.4211" y="71.4219" width="2.15789" height="2.15789" fill="#74C2CE"/>
<rect x="44.5789" y="71.4219" width="2.15789" height="2.15789" fill="#74C2CE"/>
<rect x="46.7368" y="71.4219" width="2.15789" height="2.15789" fill="#74C2CE"/>
<rect x="48.8948" y="71.4219" width="2.15789" height="2.15789" fill="#74C2CE"/>
<rect x="51.0527" y="71.4219" width="2.15789" height="2.15789" fill="#74C2CE"/>
<rect x="53.2104" y="71.4219" width="2.15789" height="2.15789" fill="#74C2CE"/>
<rect x="55.3684" y="71.4219" width="2.15789" height="2.15789" fill="#74C2CE"/>
<rect x="57.5264" y="71.4219" width="2.15789" height="2.15789" fill="#74C2CE"/>
<rect x="59.6843" y="71.4219" width="2.15789" height="2.15789" fill="#74C2CE"/>
<rect x="61.842" y="71.4219" width="2.15789" height="2.15789" fill="#74C2CE"/>
<rect x="23" y="73.5796" width="2.15789" height="2.15789" fill="#74C2CE"/>
<rect x="25.158" y="73.5796" width="2.15789" height="2.15789" fill="#74C2CE"/>
<rect x="27.3157" y="73.5796" width="2.15789" height="2.15789" fill="#74C2CE"/>
<rect x="29.4736" y="73.5796" width="2.15789" height="2.15789" fill="#74C2CE"/>
<rect x="31.6316" y="73.5796" width="2.15789" height="2.15789" fill="#74C2CE"/>
<rect x="33.7896" y="73.5796" width="2.15789" height="2.15789" fill="#74C2CE"/>
<rect x="35.9473" y="73.5796" width="2.15789" height="2.15789" fill="#74C2CE"/>
<rect x="38.1052" y="73.5796" width="2.15789" height="2.15789" fill="#74C2CE"/>
<rect x="40.2632" y="73.5796" width="2.15789" height="2.15789" fill="#74C2CE"/>
<rect x="42.4211" y="73.5796" width="2.15789" height="2.15789" fill="#74C2CE"/>
<rect x="44.5789" y="73.5796" width="2.15789" height="2.15789" fill="#74C2CE"/>
<rect x="46.7368" y="73.5796" width="2.15789" height="2.15789" fill="#74C2CE"/>
<rect x="48.8948" y="73.5796" width="2.15789" height="2.15789" fill="#74C2CE"/>
<rect x="51.0527" y="73.5796" width="2.15789" height="2.15789" fill="#74C2CE"/>
<rect x="53.2104" y="73.5796" width="2.15789" height="2.15789" fill="#74C2CE"/>
<rect x="55.3684" y="73.5796" width="2.15789" height="2.15789" fill="#74C2CE"/>
<rect x="57.5264" y="73.5796" width="2.15789" height="2.15789" fill="#74C2CE"/>
<rect x="59.6843" y="73.5796" width="2.15789" height="2.15789" fill="#74C2CE"/>
<rect x="61.842" y="73.5796" width="2.15789" height="2.15789" fill="#74C2CE"/>
<rect x="23" y="75.7373" width="2.15789" height="2.15789" fill="#74C2CE"/>
<rect x="25.158" y="75.7373" width="2.15789" height="2.15789" fill="#74C2CE"/>
<rect x="27.3157" y="75.7373" width="2.15789" height="2.15789" fill="#74C2CE"/>
<rect x="29.4736" y="75.7373" width="2.15789" height="2.15789" fill="#74C2CE"/>
<rect x="31.6316" y="75.7373" width="2.15789" height="2.15789" fill="#74C2CE"/>
<rect x="33.7896" y="75.7373" width="2.15789" height="2.15789" fill="#74C2CE"/>
<rect x="35.9473" y="75.7373" width="2.15789" height="2.15789" fill="#74C2CE"/>
<rect x="38.1052" y="75.7373" width="2.15789" height="2.15789" fill="#74C2CE"/>
<rect x="40.2632" y="75.7373" width="2.15789" height="2.15789" fill="#74C2CE"/>
<rect x="42.4211" y="75.7373" width="2.15789" height="2.15789" fill="#74C2CE"/>
<rect x="44.5789" y="75.7373" width="2.15789" height="2.15789" fill="#74C2CE"/>
<rect x="46.7368" y="75.7373" width="2.15789" height="2.15789" fill="#74C2CE"/>
<rect x="48.8948" y="75.7373" width="2.15789" height="2.15789" fill="#74C2CE"/>
<rect x="51.0527" y="75.7373" width="2.15789" height="2.15789" fill="#74C2CE"/>
<rect x="53.2104" y="75.7373" width="2.15789" height="2.15789" fill="#74C2CE"/>
<rect x="55.3684" y="75.7373" width="2.15789" height="2.15789" fill="#74C2CE"/>
<rect x="57.5264" y="75.7373" width="2.15789" height="2.15789" fill="#74C2CE"/>
<rect x="59.6843" y="75.7373" width="2.15789" height="2.15789" fill="#74C2CE"/>
<rect x="61.842" y="75.7373" width="2.15789" height="2.15789" fill="#74C2CE"/>
<rect x="61.5833" y="73.0317" width="0.805614" height="0.805614" fill="white"/>
<rect x="61.8853" y="72.4277" width="0.201403" height="2.01403" fill="white"/>
<rect x="60.979" y="73.5352" width="0.201403" height="2.01403" transform="rotate(-90 60.979 73.5352)" fill="white"/>
<rect x="61.281" y="73.1328" width="0.201403" height="0.201403" fill="white"/>
<rect x="61.1804" y="73.0322" width="0.201403" height="0.201403" fill="white"/>
<rect x="61.0796" y="72.9316" width="0.201403" height="0.201403" fill="white"/>
<rect x="62.6909" y="73.7373" width="0.201403" height="0.201403" fill="white"/>
<rect x="62.5901" y="73.6362" width="0.201403" height="0.201403" fill="white"/>
<rect x="62.4895" y="73.5356" width="0.201403" height="0.201403" fill="white"/>
<rect x="62.2881" y="74.1396" width="0.201403" height="0.201403" fill="white"/>
<rect x="62.1875" y="74.0391" width="0.201403" height="0.201403" fill="white"/>
<rect x="62.0867" y="73.9385" width="0.201403" height="0.201403" fill="white"/>
<rect x="61.6838" y="72.73" width="0.201403" height="0.201403" fill="white"/>
<rect x="61.5833" y="72.6294" width="0.201403" height="0.201403" fill="white"/>
<rect x="61.4824" y="72.5288" width="0.201403" height="0.201403" fill="white"/>
<rect width="0.201403" height="0.201403" transform="matrix(-1 0 0 1 62.2881 72.73)" fill="white"/>
<rect width="0.201403" height="0.201403" transform="matrix(-1 0 0 1 62.3889 72.6294)" fill="white"/>
<rect width="0.201403" height="0.201403" transform="matrix(-1 0 0 1 62.4895 72.5288)" fill="white"/>
<rect width="0.201403" height="0.201403" transform="matrix(-1 0 0 1 62.6909 73.1328)" fill="white"/>
<rect width="0.201403" height="0.201403" transform="matrix(-1 0 0 1 62.7915 73.0322)" fill="white"/>
<rect width="0.201403" height="0.201403" transform="matrix(-1 0 0 1 62.8923 72.9316)" fill="white"/>
<rect width="0.201403" height="0.201403" transform="matrix(-1 0 0 1 61.6838 74.1396)" fill="white"/>
<rect width="0.201403" height="0.201403" transform="matrix(-1 0 0 1 61.7847 74.0391)" fill="white"/>
<rect width="0.201403" height="0.201403" transform="matrix(-1 0 0 1 61.8853 73.9385)" fill="white"/>
<rect width="0.201403" height="0.201403" transform="matrix(-1 0 0 1 61.281 73.7373)" fill="white"/>
<rect width="0.201403" height="0.201403" transform="matrix(-1 0 0 1 61.3818 73.6362)" fill="white"/>
<rect width="0.201403" height="0.201403" transform="matrix(-1 0 0 1 61.4824 73.5356)" fill="white"/>
<rect x="25.9924" y="75.5645" width="1.49614" height="1.49614" fill="white"/>
<rect x="26.5532" y="74.4424" width="0.374035" height="3.74035" fill="white"/>
<rect x="24.8701" y="76.4995" width="0.374035" height="3.74035" transform="rotate(-90 24.8701 76.4995)" fill="white"/>
<rect x="25.4309" y="75.7515" width="0.374035" height="0.374035" fill="white"/>
<rect x="25.2444" y="75.5645" width="0.374035" height="0.374035" fill="white"/>
<rect x="25.0574" y="75.3774" width="0.374035" height="0.374035" fill="white"/>
<rect x="28.0496" y="76.8735" width="0.374035" height="0.374035" fill="white"/>
<rect x="27.8625" y="76.6865" width="0.374035" height="0.374035" fill="white"/>
<rect x="27.6753" y="76.4995" width="0.374035" height="0.374035" fill="white"/>
<rect x="27.301" y="77.6216" width="0.374035" height="0.374035" fill="white"/>
<rect x="27.1145" y="77.4346" width="0.374035" height="0.374035" fill="white"/>
<rect x="26.9275" y="77.2476" width="0.374035" height="0.374035" fill="white"/>
<rect x="26.1794" y="75.0034" width="0.374035" height="0.374035" fill="white"/>
<rect x="25.9924" y="74.8159" width="0.374035" height="0.374035" fill="white"/>
<rect x="25.8052" y="74.6289" width="0.374035" height="0.374035" fill="white"/>
<rect width="0.374035" height="0.374035" transform="matrix(-1 0 0 1 27.301 75.0034)" fill="white"/>
<rect width="0.374035" height="0.374035" transform="matrix(-1 0 0 1 27.4883 74.8159)" fill="white"/>
<rect width="0.374035" height="0.374035" transform="matrix(-1 0 0 1 27.6753 74.6289)" fill="white"/>
<rect width="0.374035" height="0.374035" transform="matrix(-1 0 0 1 28.0496 75.7515)" fill="white"/>
<rect width="0.374035" height="0.374035" transform="matrix(-1 0 0 1 28.2363 75.5645)" fill="white"/>
<rect width="0.374035" height="0.374035" transform="matrix(-1 0 0 1 28.4233 75.3774)" fill="white"/>
<rect width="0.374035" height="0.374035" transform="matrix(-1 0 0 1 26.1794 77.6216)" fill="white"/>
<rect width="0.374035" height="0.374035" transform="matrix(-1 0 0 1 26.366 77.4346)" fill="white"/>
<rect width="0.374035" height="0.374035" transform="matrix(-1 0 0 1 26.5532 77.2476)" fill="white"/>
<rect width="0.374035" height="0.374035" transform="matrix(-1 0 0 1 25.4309 76.8735)" fill="white"/>
<rect width="0.374035" height="0.374035" transform="matrix(-1 0 0 1 25.6182 76.6865)" fill="white"/>
<rect width="0.374035" height="0.374035" transform="matrix(-1 0 0 1 25.8052 76.4995)" fill="white"/>
<rect x="60.4756" y="76.5283" width="1.72632" height="1.72632" fill="white"/>
<rect x="60.6914" y="76.3125" width="1.29474" height="2.15789" fill="white"/>
<rect x="60.2598" y="76.6357" width="2.15789" height="1.40263" fill="white"/>
<rect x="24.8557" y="68.6733" width="1.03579" height="1.03579" fill="white"/>
<rect x="24.9854" y="68.5439" width="0.776842" height="1.29474" fill="white"/>
<rect x="24.7263" y="68.7383" width="1.29474" height="0.841579" fill="white"/>
<rect x="54.0735" y="77.1753" width="1.15088" height="1.15088" fill="white"/>
<rect x="53.9297" y="77.3193" width="1.15088" height="0.863158" fill="white"/>
<rect x="53.7859" y="77.4634" width="1.15088" height="0.575439" fill="white"/>
<rect x="53.7859" y="77.4634" width="1.15088" height="0.575439" fill="white"/>
<rect x="54.2175" y="77.3193" width="1.15088" height="0.863158" fill="white"/>
<rect x="54.3613" y="77.4634" width="1.15088" height="0.575439" fill="white"/>
<rect x="54.2175" y="78.1821" width="1.15088" height="0.863158" transform="rotate(-90 54.2175 78.1821)" fill="white"/>
<rect x="54.3608" y="78.0386" width="1.15088" height="0.575439" transform="rotate(-90 54.3608 78.0386)" fill="white"/>
<rect x="55.0806" y="77.3193" width="1.15088" height="0.863158" transform="rotate(90 55.0806 77.3193)" fill="white"/>
<rect x="54.9368" y="77.4634" width="1.15088" height="0.575439" transform="rotate(90 54.9368 77.4634)" fill="white"/>
<rect x="60.7393" y="70.0298" width="0.767251" height="0.767251" fill="white"/>
<rect x="60.6433" y="70.1255" width="0.767251" height="0.575439" fill="white"/>
<rect x="60.5474" y="70.2222" width="0.767251" height="0.383626" fill="white"/>
<rect x="60.5474" y="70.2222" width="0.767251" height="0.383626" fill="white"/>
<rect x="60.8352" y="70.1255" width="0.767251" height="0.575439" fill="white"/>
<rect x="60.9309" y="70.2222" width="0.767251" height="0.383626" fill="white"/>
<rect x="60.8352" y="70.7012" width="0.767251" height="0.575439" transform="rotate(-90 60.8352 70.7012)" fill="white"/>
<rect x="60.9307" y="70.605" width="0.767251" height="0.383626" transform="rotate(-90 60.9307 70.605)" fill="white"/>
<rect x="61.4104" y="70.1255" width="0.767251" height="0.575439" transform="rotate(90 61.4104 70.1255)" fill="white"/>
<rect x="61.3147" y="70.2222" width="0.767251" height="0.383626" transform="rotate(90 61.3147 70.2222)" fill="white"/>
<rect x="27.179" y="71.2847" width="1.4249" height="1.4249" fill="white"/>
<rect x="27.5078" y="70.8457" width="0.767251" height="1.4249" fill="white"/>
<rect x="27.5078" y="71.7231" width="0.767251" height="1.4249" fill="white"/>
<rect x="26.7405" y="72.3804" width="0.767251" height="1.4249" transform="rotate(-90 26.7405 72.3804)" fill="white"/>
<rect x="27.6174" y="72.3804" width="0.767251" height="1.4249" transform="rotate(-90 27.6174 72.3804)" fill="white"/>
<rect x="57.54" y="74.8877" width="0.979614" height="0.979433" fill="white"/>
<rect x="57.7659" y="74.5869" width="0.527484" height="0.979433" fill="white"/>
<rect x="57.7659" y="75.1895" width="0.527484" height="0.979433" fill="white"/>
<rect x="57.2385" y="75.6416" width="0.527387" height="0.979614" transform="rotate(-90 57.2385 75.6416)" fill="white"/>
<rect x="57.8413" y="75.6416" width="0.527387" height="0.979614" transform="rotate(-90 57.8413 75.6416)" fill="white"/>
<rect x="57.0835" y="22.833" width="11.4166" height="11.4166" fill="#DE1E43"/>
<rect x="68.5" y="79.916" width="11.4166" height="11.4166" fill="#DE1E43"/>
<rect x="68.5" y="68.5" width="11.4166" height="11.4166" fill="#DE1E43"/>
<rect x="79.9167" y="79.916" width="11.4166" height="11.4166" fill="#DE1E43"/>
<rect x="79.9167" y="68.5" width="11.4166" height="11.4166" fill="#DE1E43"/>
<rect x="68.5" y="57.083" width="11.4166" height="11.4166" fill="#DE1E43"/>
<rect x="68.5" y="45.667" width="11.4166" height="11.4166" fill="#DE1E43"/>
<rect x="79.9167" y="57.083" width="11.4166" height="11.4166" fill="#DE1E43"/>
<rect x="79.9167" y="45.667" width="11.4166" height="11.4166" fill="#DE1E43"/>
<rect x="68.5" y="34.249" width="11.4166" height="11.4166" fill="#DE1E43"/>
<rect x="68.5" y="22.833" width="11.4166" height="11.4166" fill="#DE1E43"/>
<rect x="79.9167" y="34.249" width="11.4166" height="11.4166" fill="#DE1E43"/>
<rect x="79.9167" y="22.833" width="11.4166" height="11.4166" fill="#DE1E43"/>
<rect x="91.3335" width="11.4166" height="11.4166" fill="#D3C012"/>
<rect x="79.9167" y="22.833" width="11.4166" height="11.4166" fill="#404040"/>
<rect x="79.9167" y="34.249" width="11.4166" height="11.4166" fill="#404040"/>
<rect x="79.9167" y="11.416" width="11.4166" height="11.4166" fill="#404040"/>
<rect x="79.9167" width="11.4166" height="11.4166" fill="#D3C012"/>
<rect x="45.6667" y="22.833" width="11.4166" height="11.4166" fill="#B31836"/>
<rect x="57.0835" y="34.249" width="11.4166" height="11.4166" fill="#B31836"/>
<rect x="91.3335" y="79.916" width="11.4166" height="11.4166" fill="#DE1E43"/>
<rect x="91.3335" y="68.5" width="11.4166" height="11.4166" fill="#DE1E43"/>
<rect x="102.75" y="79.916" width="11.4166" height="11.4166" fill="#DE1E43"/>
<rect x="102.75" y="68.5" width="11.4166" height="11.4166" fill="#DE1E43"/>
<rect x="91.3335" y="57.083" width="11.4166" height="11.4166" fill="#DE1E43"/>
<rect x="91.3335" y="45.667" width="11.4166" height="11.4166" fill="#DE1E43"/>
<rect x="102.75" y="57.083" width="11.4166" height="11.4166" fill="#DE1E43"/>
<rect x="102.75" y="45.667" width="11.4166" height="11.4166" fill="#DE1E43"/>
<rect x="91.3335" y="34.249" width="11.4166" height="11.4166" fill="#DE1E43"/>
<rect x="91.3335" y="22.833" width="11.4166" height="11.4166" fill="#DE1E43"/>
<rect x="102.75" y="34.249" width="11.4166" height="11.4166" fill="#DE1E43"/>
<rect x="102.75" y="22.833" width="11.4166" height="11.4166" fill="#DE1E43"/>
<rect x="114.166" y="79.916" width="11.4166" height="11.4166" fill="#DE1E43"/>
<rect x="114.166" y="68.5" width="11.4166" height="11.4166" fill="#DE1E43"/>
<rect x="125.583" y="79.916" width="11.4166" height="11.4166" fill="#DE1E43"/>
<rect x="125.583" y="68.5" width="11.4166" height="11.4166" fill="#DE1E43"/>
<rect x="114.166" y="57.083" width="11.4166" height="11.4166" fill="#DE1E43"/>
<rect x="114.166" y="45.667" width="11.4166" height="11.4166" fill="#DE1E43"/>
<rect x="125.583" y="57.083" width="11.4166" height="11.4166" fill="#DE1E43"/>
<rect x="125.583" y="45.667" width="11.4166" height="11.4166" fill="#DE1E43"/>
<rect x="114.166" y="34.249" width="11.4166" height="11.4166" fill="#DE1E43"/>
<rect x="114.166" y="22.833" width="11.4166" height="11.4166" fill="#DE1E43"/>
<rect x="125.583" y="34.249" width="11.4166" height="11.4166" fill="#DE1E43"/>
<rect x="125.583" y="22.833" width="11.4166" height="11.4166" fill="#DE1E43"/>
<rect x="57.0835" y="79.916" width="11.4166" height="11.4166" fill="#B31836"/>
<rect x="57.0835" y="68.5" width="11.4166" height="11.4166" fill="#B31836"/>
<rect x="57.0835" y="57.083" width="11.4166" height="11.4166" fill="#B31836"/>
<rect x="57.0835" y="45.667" width="11.4166" height="11.4166" fill="#B31836"/>
</svg>
