<svg width="137" height="217" viewBox="0 0 137 217" fill="none" xmlns="http://www.w3.org/2000/svg">
<rect x="74" y="71" width="23" height="146" fill="#8F5025"/>
<rect x="74" y="160" width="11" height="57" fill="#B1642C"/>
<rect x="74" y="92" width="23" height="11" fill="#7E431B"/>
<rect x="85" y="92" width="12" height="22" fill="#7E431B"/>
<rect x="23" y="46" width="34" height="45" fill="#DE1E43"/>
<rect x="23" y="46" width="34" height="45" fill="#DE1E43"/>
<rect x="23" y="46" width="34" height="45" fill="#DE1E43"/>
<rect x="34" y="34" width="103" height="57" fill="#DE1E43"/>
<rect x="34" y="34" width="103" height="57" fill="#DE1E43"/>
<rect x="34" y="34" width="103" height="57" fill="#DE1E43"/>
<rect x="46" y="23" width="91" height="57" fill="#DE1E43"/>
<rect x="46" y="23" width="91" height="57" fill="#DE1E43"/>
<rect x="46" y="23" width="91" height="57" fill="#DE1E43"/>
<rect x="46" y="23" width="11" height="11" fill="#B31836"/>
<rect x="23" y="52" width="2.15789" height="2.15789" fill="#21AFC5"/>
<rect x="25.1579" y="52" width="2.15789" height="2.15789" fill="#21AFC5"/>
<rect x="27.3158" y="52" width="2.15789" height="2.15789" fill="#21AFC5"/>
<rect x="29.4737" y="52" width="2.15789" height="2.15789" fill="#21AFC5"/>
<rect x="31.6316" y="52" width="2.15789" height="2.15789" fill="#21AFC5"/>
<rect x="33.7895" y="52" width="2.15789" height="2.15789" fill="#21AFC5"/>
<rect x="35.9474" y="52" width="2.15789" height="2.15789" fill="#21AFC5"/>
<rect x="38.1052" y="52" width="2.15789" height="2.15789" fill="#21AFC5"/>
<rect x="40.2632" y="52" width="2.15789" height="2.15789" fill="#21AFC5"/>
<rect x="42.4211" y="52" width="2.15789" height="2.15789" fill="#21AFC5"/>
<rect x="44.5789" y="52" width="2.15789" height="2.15789" fill="#21AFC5"/>
<rect x="46.7368" y="52" width="2.15789" height="2.15789" fill="#21AFC5"/>
<rect x="48.8948" y="52" width="2.15789" height="2.15789" fill="#21AFC5"/>
<rect x="51.0526" y="52" width="2.15789" height="2.15789" fill="#21AFC5"/>
<rect x="53.2105" y="52" width="2.15789" height="2.15789" fill="#21AFC5"/>
<rect x="55.3684" y="52" width="2.15789" height="2.15789" fill="#21AFC5"/>
<rect x="57.5263" y="52" width="2.15789" height="2.15789" fill="#21AFC5"/>
<rect x="59.6842" y="52" width="2.15789" height="2.15789" fill="#21AFC5"/>
<rect x="61.8421" y="52" width="2.15789" height="2.15789" fill="#21AFC5"/>
<rect x="23" y="54.1582" width="2.15789" height="2.15789" fill="#21AFC5"/>
<rect x="25.1579" y="54.1582" width="2.15789" height="2.15789" fill="#21AFC5"/>
<rect x="27.3158" y="54.1582" width="2.15789" height="2.15789" fill="#21AFC5"/>
<rect x="29.4737" y="54.1582" width="2.15789" height="2.15789" fill="#21AFC5"/>
<rect x="31.6316" y="54.1582" width="2.15789" height="2.15789" fill="#21AFC5"/>
<rect x="33.7895" y="54.1582" width="2.15789" height="2.15789" fill="#21AFC5"/>
<rect x="35.9474" y="54.1582" width="2.15789" height="2.15789" fill="#21AFC5"/>
<rect x="38.1052" y="54.1582" width="2.15789" height="2.15789" fill="#21AFC5"/>
<rect x="40.2632" y="54.1582" width="2.15789" height="2.15789" fill="#21AFC5"/>
<rect x="42.4211" y="54.1582" width="2.15789" height="2.15789" fill="#21AFC5"/>
<rect x="44.5789" y="54.1582" width="2.15789" height="2.15789" fill="#21AFC5"/>
<rect x="46.7368" y="54.1582" width="2.15789" height="2.15789" fill="#21AFC5"/>
<rect x="48.8948" y="54.1582" width="2.15789" height="2.15789" fill="#21AFC5"/>
<rect x="51.0526" y="54.1582" width="2.15789" height="2.15789" fill="#21AFC5"/>
<rect x="53.2105" y="54.1582" width="2.15789" height="2.15789" fill="#21AFC5"/>
<rect x="55.3684" y="54.1582" width="2.15789" height="2.15789" fill="#21AFC5"/>
<rect x="57.5263" y="54.1582" width="2.15789" height="2.15789" fill="#21AFC5"/>
<rect x="59.6842" y="54.1582" width="2.15789" height="2.15789" fill="#21AFC5"/>
<rect x="61.8421" y="54.1582" width="2.15789" height="2.15789" fill="#21AFC5"/>
<rect x="25.1579" y="56.3164" width="2.15789" height="2.15789" fill="#21AFC5"/>
<rect x="27.3158" y="56.3164" width="2.15789" height="2.15789" fill="#21AFC5"/>
<rect x="29.4737" y="56.3164" width="2.15789" height="2.15789" fill="#21AFC5"/>
<rect x="31.6316" y="56.3164" width="2.15789" height="2.15789" fill="#21AFC5"/>
<rect x="33.7895" y="56.3164" width="2.15789" height="2.15789" fill="#21AFC5"/>
<rect x="35.9474" y="56.3164" width="2.15789" height="2.15789" fill="#21AFC5"/>
<rect x="38.1052" y="56.3164" width="2.15789" height="2.15789" fill="#21AFC5"/>
<rect x="40.2632" y="56.3164" width="2.15789" height="2.15789" fill="#21AFC5"/>
<rect x="42.4211" y="56.3164" width="2.15789" height="2.15789" fill="#21AFC5"/>
<rect x="44.5789" y="56.3164" width="2.15789" height="2.15789" fill="#21AFC5"/>
<rect x="46.7368" y="56.3164" width="2.15789" height="2.15789" fill="#21AFC5"/>
<rect x="48.8948" y="56.3164" width="2.15789" height="2.15789" fill="#21AFC5"/>
<rect x="51.0526" y="56.3164" width="2.15789" height="2.15789" fill="#21AFC5"/>
<rect x="53.2105" y="56.3164" width="2.15789" height="2.15789" fill="#21AFC5"/>
<rect x="55.3684" y="56.3164" width="2.15789" height="2.15789" fill="#21AFC5"/>
<rect x="57.5263" y="56.3164" width="2.15789" height="2.15789" fill="#21AFC5"/>
<rect x="59.6842" y="56.3164" width="2.15789" height="2.15789" fill="#21AFC5"/>
<rect x="27.3158" y="58.4736" width="2.15789" height="2.15789" fill="#21AFC5"/>
<rect x="29.4737" y="58.4736" width="2.15789" height="2.15789" fill="#21AFC5"/>
<rect x="31.6316" y="58.4736" width="2.15789" height="2.15789" fill="#21AFC5"/>
<rect x="33.7895" y="58.4736" width="2.15789" height="2.15789" fill="#21AFC5"/>
<rect x="35.9474" y="58.4736" width="2.15789" height="2.15789" fill="#21AFC5"/>
<rect x="38.1052" y="58.4736" width="2.15789" height="2.15789" fill="#21AFC5"/>
<rect x="40.2632" y="58.4736" width="2.15789" height="2.15789" fill="#21AFC5"/>
<rect x="42.4211" y="58.4736" width="2.15789" height="2.15789" fill="#21AFC5"/>
<rect x="44.5789" y="58.4736" width="2.15789" height="2.15789" fill="#21AFC5"/>
<rect x="46.7368" y="58.4736" width="2.15789" height="2.15789" fill="#21AFC5"/>
<rect x="48.8948" y="58.4736" width="2.15789" height="2.15789" fill="#21AFC5"/>
<rect x="51.0526" y="58.4736" width="2.15789" height="2.15789" fill="#21AFC5"/>
<rect x="53.2105" y="58.4736" width="2.15789" height="2.15789" fill="#21AFC5"/>
<rect x="55.3684" y="58.4736" width="2.15789" height="2.15789" fill="#21AFC5"/>
<rect x="57.5263" y="58.4736" width="2.15789" height="2.15789" fill="#21AFC5"/>
<rect x="29.4737" y="60.6318" width="2.15789" height="2.15789" fill="#21AFC5"/>
<rect x="31.6316" y="60.6318" width="2.15789" height="2.15789" fill="#21AFC5"/>
<rect x="33.7895" y="60.6318" width="2.15789" height="2.15789" fill="#21AFC5"/>
<rect x="35.9474" y="60.6318" width="2.15789" height="2.15789" fill="#21AFC5"/>
<rect x="38.1052" y="60.6318" width="2.15789" height="2.15789" fill="#21AFC5"/>
<rect x="40.2632" y="60.6318" width="2.15789" height="2.15789" fill="#21AFC5"/>
<rect x="42.4211" y="60.6318" width="2.15789" height="2.15789" fill="#21AFC5"/>
<rect x="44.5789" y="60.6318" width="2.15789" height="2.15789" fill="#21AFC5"/>
<rect x="46.7368" y="60.6318" width="2.15789" height="2.15789" fill="#21AFC5"/>
<rect x="48.8948" y="60.6318" width="2.15789" height="2.15789" fill="#21AFC5"/>
<rect x="51.0526" y="60.6318" width="2.15789" height="2.15789" fill="#21AFC5"/>
<rect x="53.2105" y="60.6318" width="2.15789" height="2.15789" fill="#21AFC5"/>
<rect x="55.3684" y="60.6318" width="2.15789" height="2.15789" fill="#21AFC5"/>
<rect x="31.6316" y="62.7891" width="2.15789" height="2.15789" fill="#21AFC5"/>
<rect x="33.7895" y="62.7891" width="2.15789" height="2.15789" fill="#21AFC5"/>
<rect x="35.9474" y="62.7891" width="2.15789" height="2.15789" fill="#21AFC5"/>
<rect x="38.1052" y="62.7891" width="2.15789" height="2.15789" fill="#21AFC5"/>
<rect x="40.2632" y="62.7891" width="2.15789" height="2.15789" fill="#21AFC5"/>
<rect x="42.4211" y="62.7891" width="2.15789" height="2.15789" fill="#21AFC5"/>
<rect x="44.5789" y="62.7891" width="2.15789" height="2.15789" fill="#21AFC5"/>
<rect x="46.7368" y="62.7891" width="2.15789" height="2.15789" fill="#21AFC5"/>
<rect x="48.8948" y="62.7891" width="2.15789" height="2.15789" fill="#21AFC5"/>
<rect x="51.0526" y="62.7891" width="2.15789" height="2.15789" fill="#21AFC5"/>
<rect x="53.2105" y="62.7891" width="2.15789" height="2.15789" fill="#21AFC5"/>
<rect x="23" y="77.8945" width="2.15789" height="2.15789" fill="#74C2CE"/>
<rect x="25.1579" y="77.8945" width="2.15789" height="2.15789" fill="#74C2CE"/>
<rect x="27.3158" y="77.8945" width="2.15789" height="2.15789" fill="#74C2CE"/>
<rect x="29.4737" y="77.8945" width="2.15789" height="2.15789" fill="#74C2CE"/>
<rect x="31.6316" y="77.8945" width="2.15789" height="2.15789" fill="#74C2CE"/>
<rect x="33.7895" y="77.8945" width="2.15789" height="2.15789" fill="#74C2CE"/>
<rect x="35.9474" y="77.8945" width="2.15789" height="2.15789" fill="#74C2CE"/>
<rect x="38.1052" y="77.8945" width="2.15789" height="2.15789" fill="#74C2CE"/>
<rect x="40.2632" y="77.8945" width="2.15789" height="2.15789" fill="#74C2CE"/>
<rect x="42.4211" y="77.8945" width="2.15789" height="2.15789" fill="#74C2CE"/>
<rect x="44.5789" y="77.8945" width="2.15789" height="2.15789" fill="#74C2CE"/>
<rect x="46.7368" y="77.8945" width="2.15789" height="2.15789" fill="#74C2CE"/>
<rect x="48.8948" y="77.8945" width="2.15789" height="2.15789" fill="#74C2CE"/>
<rect x="51.0526" y="77.8945" width="2.15789" height="2.15789" fill="#74C2CE"/>
<rect x="53.2105" y="77.8945" width="2.15789" height="2.15789" fill="#74C2CE"/>
<rect x="55.3684" y="77.8945" width="2.15789" height="2.15789" fill="#74C2CE"/>
<rect x="57.5263" y="77.8945" width="2.15789" height="2.15789" fill="#74C2CE"/>
<rect x="59.6842" y="77.8945" width="2.15789" height="2.15789" fill="#74C2CE"/>
<rect x="61.8421" y="77.8945" width="2.15789" height="2.15789" fill="#74C2CE"/>
<rect x="23" y="56.3154" width="2.15789" height="2.15789" fill="#74C2CE"/>
<rect x="61.8421" y="56.3154" width="2.15789" height="2.15789" fill="#74C2CE"/>
<rect x="23" y="58.4736" width="2.15789" height="2.15789" fill="#74C2CE"/>
<rect x="25.1579" y="58.4736" width="2.15789" height="2.15789" fill="#74C2CE"/>
<rect x="59.6842" y="58.4736" width="2.15789" height="2.15789" fill="#74C2CE"/>
<rect x="61.8421" y="58.4736" width="2.15789" height="2.15789" fill="#74C2CE"/>
<rect x="23" y="60.6318" width="2.15789" height="2.15789" fill="#74C2CE"/>
<rect x="25.1579" y="60.6318" width="2.15789" height="2.15789" fill="#74C2CE"/>
<rect x="27.3158" y="60.6318" width="2.15789" height="2.15789" fill="#74C2CE"/>
<rect x="57.5263" y="60.6318" width="2.15789" height="2.15789" fill="#74C2CE"/>
<rect x="59.6842" y="60.6318" width="2.15789" height="2.15789" fill="#74C2CE"/>
<rect x="61.8421" y="60.6318" width="2.15789" height="2.15789" fill="#74C2CE"/>
<rect x="23" y="62.7881" width="2.15789" height="2.15789" fill="#74C2CE"/>
<rect x="25.1579" y="62.7881" width="2.15789" height="2.15789" fill="#74C2CE"/>
<rect x="27.3158" y="62.7881" width="2.15789" height="2.15789" fill="#74C2CE"/>
<rect x="29.4737" y="62.7881" width="2.15789" height="2.15789" fill="#74C2CE"/>
<rect x="55.3684" y="62.7881" width="2.15789" height="2.15789" fill="#74C2CE"/>
<rect x="57.5263" y="62.7881" width="2.15789" height="2.15789" fill="#74C2CE"/>
<rect x="59.6842" y="62.7881" width="2.15789" height="2.15789" fill="#74C2CE"/>
<rect x="61.8421" y="62.7881" width="2.15789" height="2.15789" fill="#74C2CE"/>
<rect x="23" y="64.9463" width="2.15789" height="2.15789" fill="#74C2CE"/>
<rect x="25.1579" y="64.9463" width="2.15789" height="2.15789" fill="#74C2CE"/>
<rect x="27.3158" y="64.9463" width="2.15789" height="2.15789" fill="#74C2CE"/>
<rect x="29.4737" y="64.9463" width="2.15789" height="2.15789" fill="#74C2CE"/>
<rect x="31.6316" y="64.9463" width="2.15789" height="2.15789" fill="#74C2CE"/>
<rect x="33.7895" y="64.9463" width="2.15789" height="2.15789" fill="#74C2CE"/>
<rect x="35.9474" y="64.9463" width="2.15789" height="2.15789" fill="#74C2CE"/>
<rect x="38.1052" y="64.9463" width="2.15789" height="2.15789" fill="#74C2CE"/>
<rect x="40.2632" y="64.9463" width="2.15789" height="2.15789" fill="#74C2CE"/>
<rect x="42.4211" y="64.9463" width="2.15789" height="2.15789" fill="#74C2CE"/>
<rect x="44.5789" y="64.9463" width="2.15789" height="2.15789" fill="#74C2CE"/>
<rect x="46.7368" y="64.9463" width="2.15789" height="2.15789" fill="#74C2CE"/>
<rect x="48.8948" y="64.9463" width="2.15789" height="2.15789" fill="#74C2CE"/>
<rect x="51.0526" y="64.9463" width="2.15789" height="2.15789" fill="#74C2CE"/>
<rect x="53.2105" y="64.9463" width="2.15789" height="2.15789" fill="#74C2CE"/>
<rect x="55.3684" y="64.9463" width="2.15789" height="2.15789" fill="#74C2CE"/>
<rect x="57.5263" y="64.9463" width="2.15789" height="2.15789" fill="#74C2CE"/>
<rect x="59.6842" y="64.9463" width="2.15789" height="2.15789" fill="#74C2CE"/>
<rect x="61.8421" y="64.9463" width="2.15789" height="2.15789" fill="#74C2CE"/>
<rect x="23" y="67.1045" width="2.15789" height="2.15789" fill="#74C2CE"/>
<rect x="25.1579" y="67.1045" width="2.15789" height="2.15789" fill="#74C2CE"/>
<rect x="27.3158" y="67.1045" width="2.15789" height="2.15789" fill="#74C2CE"/>
<rect x="29.4737" y="67.1045" width="2.15789" height="2.15789" fill="#74C2CE"/>
<rect x="31.6316" y="67.1045" width="2.15789" height="2.15789" fill="#74C2CE"/>
<rect x="33.7895" y="67.1045" width="2.15789" height="2.15789" fill="#74C2CE"/>
<rect x="35.9474" y="67.1045" width="2.15789" height="2.15789" fill="#74C2CE"/>
<rect x="38.1052" y="67.1045" width="2.15789" height="2.15789" fill="#74C2CE"/>
<rect x="40.2632" y="67.1045" width="2.15789" height="2.15789" fill="#74C2CE"/>
<rect x="42.4211" y="67.1045" width="2.15789" height="2.15789" fill="#74C2CE"/>
<rect x="44.5789" y="67.1045" width="2.15789" height="2.15789" fill="#74C2CE"/>
<rect x="46.7368" y="67.1045" width="2.15789" height="2.15789" fill="#74C2CE"/>
<rect x="48.8948" y="67.1045" width="2.15789" height="2.15789" fill="#74C2CE"/>
<rect x="51.0526" y="67.1045" width="2.15789" height="2.15789" fill="#74C2CE"/>
<rect x="53.2105" y="67.1045" width="2.15789" height="2.15789" fill="#74C2CE"/>
<rect x="55.3684" y="67.1045" width="2.15789" height="2.15789" fill="#74C2CE"/>
<rect x="57.5263" y="67.1045" width="2.15789" height="2.15789" fill="#74C2CE"/>
<rect x="59.6842" y="67.1045" width="2.15789" height="2.15789" fill="#74C2CE"/>
<rect x="61.8421" y="67.1045" width="2.15789" height="2.15789" fill="#74C2CE"/>
<rect x="23" y="69.2627" width="2.15789" height="2.15789" fill="#74C2CE"/>
<rect x="25.1579" y="69.2627" width="2.15789" height="2.15789" fill="#74C2CE"/>
<rect x="27.3158" y="69.2627" width="2.15789" height="2.15789" fill="#74C2CE"/>
<rect x="29.4737" y="69.2627" width="2.15789" height="2.15789" fill="#74C2CE"/>
<rect x="31.6316" y="69.2627" width="2.15789" height="2.15789" fill="#74C2CE"/>
<rect x="33.7895" y="69.2627" width="2.15789" height="2.15789" fill="#74C2CE"/>
<rect x="35.9474" y="69.2627" width="2.15789" height="2.15789" fill="#74C2CE"/>
<rect x="38.1052" y="69.2627" width="2.15789" height="2.15789" fill="#74C2CE"/>
<rect x="40.2632" y="69.2627" width="2.15789" height="2.15789" fill="#74C2CE"/>
<rect x="42.4211" y="69.2627" width="2.15789" height="2.15789" fill="#74C2CE"/>
<rect x="44.5789" y="69.2627" width="2.15789" height="2.15789" fill="#74C2CE"/>
<rect x="46.7368" y="69.2627" width="2.15789" height="2.15789" fill="#74C2CE"/>
<rect x="48.8948" y="69.2627" width="2.15789" height="2.15789" fill="#74C2CE"/>
<rect x="51.0526" y="69.2627" width="2.15789" height="2.15789" fill="#74C2CE"/>
<rect x="53.2105" y="69.2627" width="2.15789" height="2.15789" fill="#74C2CE"/>
<rect x="55.3684" y="69.2627" width="2.15789" height="2.15789" fill="#74C2CE"/>
<rect x="57.5263" y="69.2627" width="2.15789" height="2.15789" fill="#74C2CE"/>
<rect x="59.6842" y="69.2627" width="2.15789" height="2.15789" fill="#74C2CE"/>
<rect x="61.8421" y="69.2627" width="2.15789" height="2.15789" fill="#74C2CE"/>
<rect x="23" y="71.4209" width="2.15789" height="2.15789" fill="#74C2CE"/>
<rect x="25.1579" y="71.4209" width="2.15789" height="2.15789" fill="#74C2CE"/>
<rect x="27.3158" y="71.4209" width="2.15789" height="2.15789" fill="#74C2CE"/>
<rect x="29.4737" y="71.4209" width="2.15789" height="2.15789" fill="#74C2CE"/>
<rect x="31.6316" y="71.4209" width="2.15789" height="2.15789" fill="#74C2CE"/>
<rect x="33.7895" y="71.4209" width="2.15789" height="2.15789" fill="#74C2CE"/>
<rect x="35.9474" y="71.4209" width="2.15789" height="2.15789" fill="#74C2CE"/>
<rect x="38.1052" y="71.4209" width="2.15789" height="2.15789" fill="#74C2CE"/>
<rect x="40.2632" y="71.4209" width="2.15789" height="2.15789" fill="#74C2CE"/>
<rect x="42.4211" y="71.4209" width="2.15789" height="2.15789" fill="#74C2CE"/>
<rect x="44.5789" y="71.4209" width="2.15789" height="2.15789" fill="#74C2CE"/>
<rect x="46.7368" y="71.4209" width="2.15789" height="2.15789" fill="#74C2CE"/>
<rect x="48.8948" y="71.4209" width="2.15789" height="2.15789" fill="#74C2CE"/>
<rect x="51.0526" y="71.4209" width="2.15789" height="2.15789" fill="#74C2CE"/>
<rect x="53.2105" y="71.4209" width="2.15789" height="2.15789" fill="#74C2CE"/>
<rect x="55.3684" y="71.4209" width="2.15789" height="2.15789" fill="#74C2CE"/>
<rect x="57.5263" y="71.4209" width="2.15789" height="2.15789" fill="#74C2CE"/>
<rect x="59.6842" y="71.4209" width="2.15789" height="2.15789" fill="#74C2CE"/>
<rect x="61.8421" y="71.4209" width="2.15789" height="2.15789" fill="#74C2CE"/>
<rect x="23" y="73.5781" width="2.15789" height="2.15789" fill="#74C2CE"/>
<rect x="25.1579" y="73.5781" width="2.15789" height="2.15789" fill="#74C2CE"/>
<rect x="27.3158" y="73.5781" width="2.15789" height="2.15789" fill="#74C2CE"/>
<rect x="29.4737" y="73.5781" width="2.15789" height="2.15789" fill="#74C2CE"/>
<rect x="31.6316" y="73.5781" width="2.15789" height="2.15789" fill="#74C2CE"/>
<rect x="33.7895" y="73.5781" width="2.15789" height="2.15789" fill="#74C2CE"/>
<rect x="35.9474" y="73.5781" width="2.15789" height="2.15789" fill="#74C2CE"/>
<rect x="38.1052" y="73.5781" width="2.15789" height="2.15789" fill="#74C2CE"/>
<rect x="40.2632" y="73.5781" width="2.15789" height="2.15789" fill="#74C2CE"/>
<rect x="42.4211" y="73.5781" width="2.15789" height="2.15789" fill="#74C2CE"/>
<rect x="44.5789" y="73.5781" width="2.15789" height="2.15789" fill="#74C2CE"/>
<rect x="46.7368" y="73.5781" width="2.15789" height="2.15789" fill="#74C2CE"/>
<rect x="48.8948" y="73.5781" width="2.15789" height="2.15789" fill="#74C2CE"/>
<rect x="51.0526" y="73.5781" width="2.15789" height="2.15789" fill="#74C2CE"/>
<rect x="53.2105" y="73.5781" width="2.15789" height="2.15789" fill="#74C2CE"/>
<rect x="55.3684" y="73.5781" width="2.15789" height="2.15789" fill="#74C2CE"/>
<rect x="57.5263" y="73.5781" width="2.15789" height="2.15789" fill="#74C2CE"/>
<rect x="59.6842" y="73.5781" width="2.15789" height="2.15789" fill="#74C2CE"/>
<rect x="61.8421" y="73.5781" width="2.15789" height="2.15789" fill="#74C2CE"/>
<rect x="23" y="75.7363" width="2.15789" height="2.15789" fill="#74C2CE"/>
<rect x="25.1579" y="75.7363" width="2.15789" height="2.15789" fill="#74C2CE"/>
<rect x="27.3158" y="75.7363" width="2.15789" height="2.15789" fill="#74C2CE"/>
<rect x="29.4737" y="75.7363" width="2.15789" height="2.15789" fill="#74C2CE"/>
<rect x="31.6316" y="75.7363" width="2.15789" height="2.15789" fill="#74C2CE"/>
<rect x="33.7895" y="75.7363" width="2.15789" height="2.15789" fill="#74C2CE"/>
<rect x="35.9474" y="75.7363" width="2.15789" height="2.15789" fill="#74C2CE"/>
<rect x="38.1052" y="75.7363" width="2.15789" height="2.15789" fill="#74C2CE"/>
<rect x="40.2632" y="75.7363" width="2.15789" height="2.15789" fill="#74C2CE"/>
<rect x="42.4211" y="75.7363" width="2.15789" height="2.15789" fill="#74C2CE"/>
<rect x="44.5789" y="75.7363" width="2.15789" height="2.15789" fill="#74C2CE"/>
<rect x="46.7368" y="75.7363" width="2.15789" height="2.15789" fill="#74C2CE"/>
<rect x="48.8948" y="75.7363" width="2.15789" height="2.15789" fill="#74C2CE"/>
<rect x="51.0526" y="75.7363" width="2.15789" height="2.15789" fill="#74C2CE"/>
<rect x="53.2105" y="75.7363" width="2.15789" height="2.15789" fill="#74C2CE"/>
<rect x="55.3684" y="75.7363" width="2.15789" height="2.15789" fill="#74C2CE"/>
<rect x="57.5263" y="75.7363" width="2.15789" height="2.15789" fill="#74C2CE"/>
<rect x="59.6842" y="75.7363" width="2.15789" height="2.15789" fill="#74C2CE"/>
<rect x="61.8421" y="75.7363" width="2.15789" height="2.15789" fill="#74C2CE"/>
<rect x="61.5833" y="73.0293" width="0.805614" height="0.805614" fill="white"/>
<rect x="61.8854" y="72.4258" width="0.201403" height="2.01403" fill="white"/>
<rect x="60.9791" y="73.5342" width="0.201403" height="2.01403" transform="rotate(-90 60.9791 73.5342)" fill="white"/>
<rect x="61.2811" y="73.1318" width="0.201403" height="0.201403" fill="white"/>
<rect x="61.1804" y="73.0312" width="0.201403" height="0.201403" fill="white"/>
<rect x="61.0797" y="72.9307" width="0.201403" height="0.201403" fill="white"/>
<rect x="62.691" y="73.7363" width="0.201403" height="0.201403" fill="white"/>
<rect x="62.5903" y="73.6348" width="0.201403" height="0.201403" fill="white"/>
<rect x="62.4895" y="73.5352" width="0.201403" height="0.201403" fill="white"/>
<rect x="62.2881" y="74.1387" width="0.201403" height="0.201403" fill="white"/>
<rect x="62.1874" y="74.0381" width="0.201403" height="0.201403" fill="white"/>
<rect x="62.0867" y="73.9375" width="0.201403" height="0.201403" fill="white"/>
<rect x="61.6839" y="72.7295" width="0.201403" height="0.201403" fill="white"/>
<rect x="61.5832" y="72.6289" width="0.201403" height="0.201403" fill="white"/>
<rect x="61.4825" y="72.5283" width="0.201403" height="0.201403" fill="white"/>
<rect width="0.201403" height="0.201403" transform="matrix(-1 0 0 1 62.2881 72.7295)" fill="white"/>
<rect width="0.201403" height="0.201403" transform="matrix(-1 0 0 1 62.3888 72.6289)" fill="white"/>
<rect width="0.201403" height="0.201403" transform="matrix(-1 0 0 1 62.4895 72.5283)" fill="white"/>
<rect width="0.201403" height="0.201403" transform="matrix(-1 0 0 1 62.691 73.1318)" fill="white"/>
<rect width="0.201403" height="0.201403" transform="matrix(-1 0 0 1 62.7916 73.0312)" fill="white"/>
<rect width="0.201403" height="0.201403" transform="matrix(-1 0 0 1 62.8923 72.9307)" fill="white"/>
<rect width="0.201403" height="0.201403" transform="matrix(-1 0 0 1 61.6839 74.1387)" fill="white"/>
<rect width="0.201403" height="0.201403" transform="matrix(-1 0 0 1 61.7847 74.0381)" fill="white"/>
<rect width="0.201403" height="0.201403" transform="matrix(-1 0 0 1 61.8853 73.9375)" fill="white"/>
<rect width="0.201403" height="0.201403" transform="matrix(-1 0 0 1 61.2811 73.7363)" fill="white"/>
<rect width="0.201403" height="0.201403" transform="matrix(-1 0 0 1 61.3818 73.6348)" fill="white"/>
<rect width="0.201403" height="0.201403" transform="matrix(-1 0 0 1 61.4825 73.5352)" fill="white"/>
<rect x="25.9924" y="75.5654" width="1.49614" height="1.49614" fill="white"/>
<rect x="26.5533" y="74.4434" width="0.374035" height="3.74035" fill="white"/>
<rect x="24.8702" y="76.5" width="0.374035" height="3.74035" transform="rotate(-90 24.8702 76.5)" fill="white"/>
<rect x="25.4311" y="75.752" width="0.374035" height="0.374035" fill="white"/>
<rect x="25.2444" y="75.5654" width="0.374035" height="0.374035" fill="white"/>
<rect x="25.0573" y="75.3789" width="0.374035" height="0.374035" fill="white"/>
<rect x="28.0497" y="76.874" width="0.374035" height="0.374035" fill="white"/>
<rect x="27.8625" y="76.6875" width="0.374035" height="0.374035" fill="white"/>
<rect x="27.6755" y="76.5" width="0.374035" height="0.374035" fill="white"/>
<rect x="27.3012" y="77.623" width="0.374035" height="0.374035" fill="white"/>
<rect x="27.1147" y="77.4355" width="0.374035" height="0.374035" fill="white"/>
<rect x="26.9276" y="77.249" width="0.374035" height="0.374035" fill="white"/>
<rect x="26.1796" y="75.0049" width="0.374035" height="0.374035" fill="white"/>
<rect x="25.9924" y="74.8174" width="0.374035" height="0.374035" fill="white"/>
<rect x="25.8053" y="74.6299" width="0.374035" height="0.374035" fill="white"/>
<rect width="0.374035" height="0.374035" transform="matrix(-1 0 0 1 27.3012 75.0049)" fill="white"/>
<rect width="0.374035" height="0.374035" transform="matrix(-1 0 0 1 27.4883 74.8174)" fill="white"/>
<rect width="0.374035" height="0.374035" transform="matrix(-1 0 0 1 27.6755 74.6299)" fill="white"/>
<rect width="0.374035" height="0.374035" transform="matrix(-1 0 0 1 28.0497 75.752)" fill="white"/>
<rect width="0.374035" height="0.374035" transform="matrix(-1 0 0 1 28.2363 75.5654)" fill="white"/>
<rect width="0.374035" height="0.374035" transform="matrix(-1 0 0 1 28.4235 75.3789)" fill="white"/>
<rect width="0.374035" height="0.374035" transform="matrix(-1 0 0 1 26.1796 77.623)" fill="white"/>
<rect width="0.374035" height="0.374035" transform="matrix(-1 0 0 1 26.3661 77.4355)" fill="white"/>
<rect width="0.374035" height="0.374035" transform="matrix(-1 0 0 1 26.5533 77.249)" fill="white"/>
<rect width="0.374035" height="0.374035" transform="matrix(-1 0 0 1 25.4311 76.874)" fill="white"/>
<rect width="0.374035" height="0.374035" transform="matrix(-1 0 0 1 25.6182 76.6875)" fill="white"/>
<rect width="0.374035" height="0.374035" transform="matrix(-1 0 0 1 25.8053 76.5)" fill="white"/>
<rect x="60.4755" y="76.5283" width="1.72632" height="1.72632" fill="white"/>
<rect x="60.6913" y="76.3125" width="1.29474" height="2.15789" fill="white"/>
<rect x="60.2596" y="76.6357" width="2.15789" height="1.40263" fill="white"/>
<rect x="24.8558" y="68.6719" width="1.03579" height="1.03579" fill="white"/>
<rect x="24.9852" y="68.543" width="0.776842" height="1.29474" fill="white"/>
<rect x="24.7263" y="68.7373" width="1.29474" height="0.841579" fill="white"/>
<rect x="54.0737" y="77.1748" width="1.15088" height="1.15088" fill="white"/>
<rect x="53.9298" y="77.3184" width="1.15088" height="0.863158" fill="white"/>
<rect x="53.7859" y="77.4629" width="1.15088" height="0.575439" fill="white"/>
<rect x="53.7859" y="77.4629" width="1.15088" height="0.575439" fill="white"/>
<rect x="54.2176" y="77.3184" width="1.15088" height="0.863158" fill="white"/>
<rect x="54.3614" y="77.4629" width="1.15088" height="0.575439" fill="white"/>
<rect x="54.2176" y="78.1816" width="1.15088" height="0.863158" transform="rotate(-90 54.2176 78.1816)" fill="white"/>
<rect x="54.3608" y="78.0381" width="1.15088" height="0.575439" transform="rotate(-90 54.3608 78.0381)" fill="white"/>
<rect x="55.0807" y="77.3184" width="1.15088" height="0.863158" transform="rotate(90 55.0807 77.3184)" fill="white"/>
<rect x="54.9368" y="77.4629" width="1.15088" height="0.575439" transform="rotate(90 54.9368 77.4629)" fill="white"/>
<rect x="60.7392" y="70.0303" width="0.767251" height="0.767251" fill="white"/>
<rect x="60.6433" y="70.126" width="0.767251" height="0.575439" fill="white"/>
<rect x="60.5474" y="70.2227" width="0.767251" height="0.383626" fill="white"/>
<rect x="60.5474" y="70.2227" width="0.767251" height="0.383626" fill="white"/>
<rect x="60.8351" y="70.126" width="0.767251" height="0.575439" fill="white"/>
<rect x="60.931" y="70.2227" width="0.767251" height="0.383626" fill="white"/>
<rect x="60.8351" y="70.7012" width="0.767251" height="0.575439" transform="rotate(-90 60.8351 70.7012)" fill="white"/>
<rect x="60.9307" y="70.6055" width="0.767251" height="0.383626" transform="rotate(-90 60.9307 70.6055)" fill="white"/>
<rect x="61.4105" y="70.126" width="0.767251" height="0.575439" transform="rotate(90 61.4105 70.126)" fill="white"/>
<rect x="61.3147" y="70.2227" width="0.767251" height="0.383626" transform="rotate(90 61.3147 70.2227)" fill="white"/>
<rect x="27.1788" y="71.2842" width="1.4249" height="1.4249" fill="white"/>
<rect x="27.5076" y="70.8457" width="0.767251" height="1.4249" fill="white"/>
<rect x="27.5076" y="71.7227" width="0.767251" height="1.4249" fill="white"/>
<rect x="26.7404" y="72.3799" width="0.767251" height="1.4249" transform="rotate(-90 26.7404 72.3799)" fill="white"/>
<rect x="27.6172" y="72.3799" width="0.767251" height="1.4249" transform="rotate(-90 27.6172 72.3799)" fill="white"/>
<rect x="57.5402" y="74.8877" width="0.979614" height="0.979433" fill="white"/>
<rect x="57.7661" y="74.5859" width="0.527484" height="0.979433" fill="white"/>
<rect x="57.7661" y="75.1885" width="0.527484" height="0.979433" fill="white"/>
<rect x="57.2386" y="75.6406" width="0.527387" height="0.979614" transform="rotate(-90 57.2386 75.6406)" fill="white"/>
<rect x="57.8414" y="75.6406" width="0.527387" height="0.979614" transform="rotate(-90 57.8414 75.6406)" fill="white"/>
<rect x="57" y="34" width="12" height="57" fill="#B31836"/>
<rect x="80" width="11" height="46" fill="#404040"/>
<rect x="80" width="23" height="11" fill="#D3C012"/>
<rect x="23" y="46" width="34" height="6" fill="#404040"/>
<rect x="23" y="46" width="34" height="6" fill="#404040"/>
<rect x="34" y="34" width="23" height="18" fill="#404040"/>
<rect x="34" y="34" width="23" height="18" fill="#404040"/>
<rect x="11" y="80" width="46" height="11" fill="#404040"/>
<rect x="11" y="80" width="46" height="11" fill="#DE1E43"/>
<rect y="91" width="46" height="11" fill="#404040"/>
<rect y="91" width="46" height="11" fill="#DE1E43"/>
<rect x="11" y="86" width="35" height="11" fill="#404040"/>
<rect x="11" y="86" width="35" height="11" fill="#DE1E43"/>
</svg>
