<svg width="115" height="194" viewBox="0 0 115 194" fill="none" xmlns="http://www.w3.org/2000/svg">
<rect x="68.4707" y="57.0586" width="11.4118" height="11.4118" fill="#DE1E43"/>
<rect x="68.4707" y="45.647" width="11.4118" height="11.4118" fill="#DE1E43"/>
<rect x="79.8823" y="57.0586" width="11.4118" height="11.4118" fill="#DE1E43"/>
<rect x="79.8823" y="45.647" width="11.4118" height="11.4118" fill="#DE1E43"/>
<rect x="68.4707" y="34.2354" width="11.4118" height="11.4118" fill="#DE1E43"/>
<rect x="68.4707" y="22.8237" width="11.4118" height="11.4118" fill="#DE1E43"/>
<rect x="79.8823" y="34.2354" width="11.4118" height="11.4118" fill="#DE1E43"/>
<rect x="79.8823" y="22.8237" width="11.4118" height="11.4118" fill="#DE1E43"/>
<rect x="68.4707" y="11.4116" width="11.4118" height="11.4118" fill="#DE1E43"/>
<rect x="68.4707" width="11.4118" height="11.4118" fill="#DE1E43"/>
<rect x="79.8823" y="11.4116" width="11.4118" height="11.4118" fill="#DE1E43"/>
<rect x="79.8823" width="11.4118" height="11.4118" fill="#DE1E43"/>
<rect x="91.2942" y="57.0586" width="11.4118" height="11.4118" fill="#DE1E43"/>
<rect x="91.2942" y="45.647" width="11.4118" height="11.4118" fill="#DE1E43"/>
<rect x="102.706" y="57.0586" width="11.4118" height="11.4118" fill="#DE1E43"/>
<rect x="102.706" y="45.647" width="11.4118" height="11.4118" fill="#DE1E43"/>
<rect x="91.2942" y="34.2354" width="11.4118" height="11.4118" fill="#DE1E43"/>
<rect x="91.2942" y="22.8237" width="11.4118" height="11.4118" fill="#DE1E43"/>
<rect x="102.706" y="34.2354" width="11.4118" height="11.4118" fill="#DE1E43"/>
<rect x="102.706" y="22.8237" width="11.4118" height="11.4118" fill="#DE1E43"/>
<rect x="91.2942" y="11.4116" width="11.4118" height="11.4118" fill="#DE1E43"/>
<rect x="91.2942" width="11.4118" height="11.4118" fill="#DE1E43"/>
<rect x="102.706" y="11.4116" width="11.4118" height="11.4118" fill="#DE1E43"/>
<rect x="102.706" width="11.4118" height="11.4118" fill="#DE1E43"/>
<rect x="22.8235" y="57.0586" width="11.4118" height="11.4118" fill="#DE1E43"/>
<rect x="22.8235" y="45.647" width="11.4118" height="11.4118" fill="#DE1E43"/>
<rect x="34.2354" y="57.0586" width="11.4118" height="11.4118" fill="#B31836"/>
<rect x="34.2354" y="45.647" width="11.4118" height="11.4118" fill="#B31836"/>
<rect x="22.8235" y="34.2354" width="11.4118" height="11.4118" fill="#DE1E43"/>
<rect x="22.8235" y="22.8237" width="11.4118" height="11.4118" fill="#DE1E43"/>
<rect x="34.2354" y="34.2354" width="11.4118" height="11.4118" fill="#B31836"/>
<rect x="34.2354" y="22.8237" width="11.4118" height="11.4118" fill="#B31836"/>
<rect x="22.8235" y="11.4116" width="11.4118" height="11.4118" fill="#DE1E43"/>
<rect x="22.8235" width="11.4118" height="11.4118" fill="#B31836"/>
<rect x="34.2354" y="11.4116" width="11.4118" height="11.4118" fill="#B31836"/>
<rect y="57.0586" width="11.4118" height="11.4118" fill="#DE1E43"/>
<rect y="45.647" width="11.4118" height="11.4118" fill="#DE1E43"/>
<rect x="11.4119" y="57.0586" width="11.4118" height="11.4118" fill="#DE1E43"/>
<rect x="11.4119" y="45.647" width="11.4118" height="11.4118" fill="#DE1E43"/>
<rect y="34.2354" width="11.4118" height="11.4118" fill="#DE1E43"/>
<rect y="22.8237" width="11.4118" height="11.4118" fill="#DE1E43"/>
<rect x="11.4119" y="34.2354" width="11.4118" height="11.4118" fill="#DE1E43"/>
<rect x="11.4119" y="22.8237" width="11.4118" height="11.4118" fill="#DE1E43"/>
<rect x="11.4119" y="11.4116" width="11.4118" height="11.4118" fill="#DE1E43"/>
<rect x="34.2354" width="11.4118" height="11.4118" fill="#DE1E43"/>
<rect x="45.647" y="57.0586" width="11.4118" height="11.4118" fill="#DE1E43"/>
<rect x="45.647" y="45.647" width="11.4118" height="11.4118" fill="#DE1E43"/>
<rect x="57.0588" y="57.0586" width="11.4118" height="11.4118" fill="#DE1E43"/>
<rect x="57.0588" y="45.647" width="11.4118" height="11.4118" fill="#DE1E43"/>
<rect x="45.647" y="34.2354" width="11.4118" height="11.4118" fill="#DE1E43"/>
<rect x="45.647" y="22.8237" width="11.4118" height="11.4118" fill="#DE1E43"/>
<rect x="57.0588" y="34.2354" width="11.4118" height="11.4118" fill="#DE1E43"/>
<rect x="57.0588" y="22.8237" width="11.4118" height="11.4118" fill="#DE1E43"/>
<rect x="45.647" y="11.4116" width="11.4118" height="11.4118" fill="#DE1E43"/>
<rect x="45.647" width="11.4118" height="11.4118" fill="#DE1E43"/>
<rect x="57.0588" y="11.4116" width="11.4118" height="11.4118" fill="#DE1E43"/>
<rect x="57.0588" width="11.4118" height="11.4118" fill="#DE1E43"/>
<rect x="50.9727" y="148.353" width="11.4118" height="11.4118" fill="#B1642C"/>
<rect x="50.9727" y="136.941" width="11.4118" height="11.4118" fill="#B1642C"/>
<rect x="62.3843" y="148.353" width="11.4118" height="11.4118" fill="#8F5025"/>
<rect x="62.3843" y="136.941" width="11.4118" height="11.4118" fill="#8F5025"/>
<rect x="50.9727" y="125.529" width="11.4118" height="11.4118" fill="#8F5025"/>
<rect x="50.9727" y="114.118" width="11.4118" height="11.4118" fill="#8F5025"/>
<rect x="62.3843" y="125.529" width="11.4118" height="11.4118" fill="#8F5025"/>
<rect x="62.3843" y="114.118" width="11.4118" height="11.4118" fill="#8F5025"/>
<rect x="50.9727" y="102.706" width="11.4118" height="11.4118" fill="#8F5025"/>
<rect x="50.9727" y="91.2939" width="11.4118" height="11.4118" fill="#8F5025"/>
<rect x="62.3843" y="102.706" width="11.4118" height="11.4118" fill="#8F5025"/>
<rect x="62.3843" y="91.2939" width="11.4118" height="11.4118" fill="#8F5025"/>
<rect x="50.9727" y="79.8823" width="11.4118" height="11.4118" fill="#8F5025"/>
<rect x="50.9727" y="68.4707" width="11.4118" height="11.4118" fill="#7E431B"/>
<rect x="62.3843" y="79.8823" width="11.4118" height="11.4118" fill="#7E431B"/>
<rect x="62.3843" y="68.4707" width="11.4118" height="11.4118" fill="#7E431B"/>
<rect x="50.9727" y="182.588" width="11.4118" height="11.4118" fill="#B1642C"/>
<rect x="62.3843" y="182.588" width="11.4118" height="11.4118" fill="#8F5025"/>
<rect x="50.9727" y="171.176" width="11.4118" height="11.4118" fill="#B1642C"/>
<rect x="50.9727" y="159.765" width="11.4118" height="11.4118" fill="#B1642C"/>
<rect x="62.3843" y="171.176" width="11.4118" height="11.4118" fill="#8F5025"/>
<rect x="62.3843" y="159.765" width="11.4118" height="11.4118" fill="#8F5025"/>
</svg>
