<svg width="32" height="33" viewBox="0 0 32 33" fill="none" xmlns="http://www.w3.org/2000/svg">
<path d="M28.2339 18.0595C28.3024 17.5455 28.3367 17.0144 28.3367 16.4489C28.3367 15.9006 28.3024 15.3523 28.2167 14.8383L31.695 12.1311C32.0034 11.8912 32.0891 11.4286 31.9006 11.0859L28.6108 5.3973C28.4052 5.02035 27.9769 4.90041 27.5999 5.02035L23.5048 6.66524C22.6481 6.01414 21.74 5.46584 20.7291 5.05462L20.1122 0.702506C20.0437 0.291283 19.701 0 19.2898 0H12.7102C12.299 0 11.9734 0.291283 11.9049 0.702506L11.2881 5.05462C10.2771 5.46584 9.3519 6.03127 8.51232 6.66524L4.41722 5.02035C4.04027 4.88327 3.61191 5.02035 3.4063 5.3973L0.133648 11.0859C-0.0719634 11.4457 -0.00342646 11.8912 0.339259 12.1311L3.81752 14.8383C3.73185 15.3523 3.66331 15.9178 3.66331 16.4489C3.66331 16.9801 3.69758 17.5455 3.78325 18.0595L0.304991 20.7668C-0.00342643 21.0066 -0.0890977 21.4693 0.0993795 21.812L3.38916 27.5005C3.59477 27.8775 4.02313 27.9974 4.40009 27.8775L8.49518 26.2326C9.3519 26.8837 10.26 27.432 11.2709 27.8432L11.8878 32.1953C11.9734 32.6066 12.299 32.8978 12.7102 32.8978H19.2898C19.701 32.8978 20.0437 32.6066 20.0951 32.1953L20.7119 27.8432C21.7229 27.432 22.6481 26.8837 23.4877 26.2326L27.5828 27.8775C27.9597 28.0146 28.3881 27.8775 28.5937 27.5005L31.8835 21.812C32.0891 21.435 32.0034 21.0066 31.6779 20.7668L28.2339 18.0595ZM16 22.6173C12.6074 22.6173 9.83166 19.8415 9.83166 16.4489C9.83166 13.0563 12.6074 10.2806 16 10.2806C19.3926 10.2806 22.1683 13.0563 22.1683 16.4489C22.1683 19.8415 19.3926 22.6173 16 22.6173Z" fill="white"/>
</svg>
