<svg width="375" height="330" viewBox="0 0 375 330" fill="none" xmlns="http://www.w3.org/2000/svg">
<rect x="83" y="204" width="13" height="13" fill="white"/>
<rect x="86" y="200" width="7" height="13" fill="white"/>
<rect x="86" y="208" width="7" height="13" fill="white"/>
<rect x="79" y="214" width="7" height="13" transform="rotate(-90 79 214)" fill="white"/>
<rect x="87" y="214" width="7" height="13" transform="rotate(-90 87 214)" fill="white"/>
<rect x="352.859" y="2.85352" width="9.28658" height="9.28399" fill="white"/>
<rect x="355" width="5.00046" height="9.28399" fill="white"/>
<rect x="355" y="5.71582" width="5.00046" height="9.28399" fill="white"/>
<rect x="350" y="10.001" width="4.99907" height="9.28658" transform="rotate(-90 350 10.001)" fill="white"/>
<rect x="355.715" y="10.001" width="4.99907" height="9.28658" transform="rotate(-90 355.715 10.001)" fill="white"/>
<rect x="325" y="245" width="16" height="16" fill="white"/>
<rect x="327" y="243" width="12" height="14" fill="white"/>
<rect x="323" y="247" width="12" height="12" fill="white"/>
<rect x="327" y="249" width="12" height="14" fill="white"/>
<rect x="331" y="247" width="12" height="12" fill="white"/>
<rect x="260.801" y="139.8" width="10.4" height="10.4" fill="white"/>
<rect x="264.699" y="132" width="2.6" height="26" fill="white"/>
<rect x="253" y="146.3" width="2.6" height="26" transform="rotate(-90 253 146.3)" fill="white"/>
<rect x="256.898" y="141.1" width="2.6" height="2.6" fill="white"/>
<rect x="255.602" y="139.8" width="2.6" height="2.6" fill="white"/>
<rect x="254.301" y="138.5" width="2.6" height="2.6" fill="white"/>
<rect x="275.102" y="148.9" width="2.6" height="2.6" fill="white"/>
<rect x="273.801" y="147.6" width="2.6" height="2.6" fill="white"/>
<rect x="272.5" y="146.3" width="2.6" height="2.6" fill="white"/>
<rect x="269.898" y="154.1" width="2.6" height="2.6" fill="white"/>
<rect x="268.602" y="152.8" width="2.6" height="2.6" fill="white"/>
<rect x="267.301" y="151.5" width="2.6" height="2.6" fill="white"/>
<rect x="262.102" y="135.9" width="2.6" height="2.6" fill="white"/>
<rect x="260.801" y="134.6" width="2.6" height="2.6" fill="white"/>
<rect x="259.5" y="133.3" width="2.6" height="2.6" fill="white"/>
<rect width="2.6" height="2.6" transform="matrix(-1 0 0 1 269.898 135.9)" fill="white"/>
<rect width="2.6" height="2.6" transform="matrix(-1 0 0 1 271.199 134.6)" fill="white"/>
<rect width="2.6" height="2.6" transform="matrix(-1 0 0 1 272.5 133.3)" fill="white"/>
<rect width="2.6" height="2.6" transform="matrix(-1 0 0 1 275.102 141.1)" fill="white"/>
<rect width="2.6" height="2.6" transform="matrix(-1 0 0 1 276.398 139.8)" fill="white"/>
<rect width="2.6" height="2.6" transform="matrix(-1 0 0 1 277.699 138.5)" fill="white"/>
<rect width="2.6" height="2.6" transform="matrix(-1 0 0 1 262.102 154.1)" fill="white"/>
<rect width="2.6" height="2.6" transform="matrix(-1 0 0 1 263.398 152.8)" fill="white"/>
<rect width="2.6" height="2.6" transform="matrix(-1 0 0 1 264.699 151.5)" fill="white"/>
<rect width="2.6" height="2.6" transform="matrix(-1 0 0 1 256.898 148.9)" fill="white"/>
<rect width="2.6" height="2.6" transform="matrix(-1 0 0 1 258.199 147.6)" fill="white"/>
<rect width="2.6" height="2.6" transform="matrix(-1 0 0 1 259.5 146.3)" fill="white"/>
<rect x="15" y="316" width="8" height="8" fill="white"/>
<rect x="18" y="310" width="2" height="20" fill="white"/>
<rect x="9" y="321" width="2" height="20" transform="rotate(-90 9 321)" fill="white"/>
<rect x="12" y="317" width="2" height="2" fill="white"/>
<rect x="11" y="316" width="2" height="2" fill="white"/>
<rect x="10" y="315" width="2" height="2" fill="white"/>
<rect x="26" y="323" width="2" height="2" fill="white"/>
<rect x="25" y="322" width="2" height="2" fill="white"/>
<rect x="24" y="321" width="2" height="2" fill="white"/>
<rect x="22" y="327" width="2" height="2" fill="white"/>
<rect x="21" y="326" width="2" height="2" fill="white"/>
<rect x="20" y="325" width="2" height="2" fill="white"/>
<rect x="16" y="313" width="2" height="2" fill="white"/>
<rect x="15" y="312" width="2" height="2" fill="white"/>
<rect x="14" y="311" width="2" height="2" fill="white"/>
<rect width="2" height="2" transform="matrix(-1 0 0 1 22 313)" fill="white"/>
<rect width="2" height="2" transform="matrix(-1 0 0 1 23 312)" fill="white"/>
<rect width="2" height="2" transform="matrix(-1 0 0 1 24 311)" fill="white"/>
<rect width="2" height="2" transform="matrix(-1 0 0 1 26 317)" fill="white"/>
<rect width="2" height="2" transform="matrix(-1 0 0 1 27 316)" fill="white"/>
<rect width="2" height="2" transform="matrix(-1 0 0 1 28 315)" fill="white"/>
<rect width="2" height="2" transform="matrix(-1 0 0 1 16 327)" fill="white"/>
<rect width="2" height="2" transform="matrix(-1 0 0 1 17 326)" fill="white"/>
<rect width="2" height="2" transform="matrix(-1 0 0 1 18 325)" fill="white"/>
<rect width="2" height="2" transform="matrix(-1 0 0 1 12 323)" fill="white"/>
<rect width="2" height="2" transform="matrix(-1 0 0 1 13 322)" fill="white"/>
<rect width="2" height="2" transform="matrix(-1 0 0 1 14 321)" fill="white"/>
<rect x="135.5" y="67.502" width="12" height="12" fill="white"/>
<rect x="137" y="66" width="9" height="15" fill="white"/>
<rect x="134" y="68.248" width="15" height="9.75" fill="white"/>
</svg>
