<svg width="480" height="423" viewBox="0 0 480 423" fill="none" xmlns="http://www.w3.org/2000/svg">
<rect x="106.24" y="261.12" width="16.64" height="16.64" fill="white"/>
<rect x="110.08" y="256" width="8.96" height="16.64" fill="white"/>
<rect x="110.08" y="266.24" width="8.96" height="16.64" fill="white"/>
<rect x="101.12" y="273.92" width="8.96" height="16.64" transform="rotate(-90 101.12 273.92)" fill="white"/>
<rect x="111.36" y="273.92" width="8.96" height="16.64" transform="rotate(-90 111.36 273.92)" fill="white"/>
<rect x="451.66" y="3.65234" width="11.8868" height="11.8835" fill="white"/>
<rect x="454.4" width="6.40059" height="11.8835" fill="white"/>
<rect x="454.4" y="7.31641" width="6.40059" height="11.8835" fill="white"/>
<rect x="448" y="12.8008" width="6.39881" height="11.8868" transform="rotate(-90 448 12.8008)" fill="white"/>
<rect x="455.315" y="12.8008" width="6.39881" height="11.8868" transform="rotate(-90 455.315 12.8008)" fill="white"/>
<rect x="416" y="313.6" width="20.48" height="20.48" fill="white"/>
<rect x="418.56" y="311.04" width="15.36" height="17.92" fill="white"/>
<rect x="413.44" y="316.16" width="15.36" height="15.36" fill="white"/>
<rect x="418.56" y="318.72" width="15.36" height="17.92" fill="white"/>
<rect x="423.68" y="316.16" width="15.36" height="15.36" fill="white"/>
<rect x="333.825" y="178.943" width="13.312" height="13.312" fill="white"/>
<rect x="338.815" y="168.96" width="3.328" height="33.28" fill="white"/>
<rect x="323.84" y="187.264" width="3.328" height="33.28" transform="rotate(-90 323.84 187.264)" fill="white"/>
<rect x="328.83" y="180.607" width="3.328" height="3.328" fill="white"/>
<rect x="327.17" y="178.943" width="3.328" height="3.328" fill="white"/>
<rect x="325.505" y="177.28" width="3.328" height="3.328" fill="white"/>
<rect x="352.13" y="190.593" width="3.328" height="3.328" fill="white"/>
<rect x="350.465" y="188.928" width="3.328" height="3.328" fill="white"/>
<rect x="348.8" y="187.264" width="3.328" height="3.328" fill="white"/>
<rect x="345.47" y="197.247" width="3.328" height="3.328" fill="white"/>
<rect x="343.81" y="195.584" width="3.328" height="3.328" fill="white"/>
<rect x="342.145" y="193.92" width="3.328" height="3.328" fill="white"/>
<rect x="335.49" y="173.952" width="3.328" height="3.328" fill="white"/>
<rect x="333.825" y="172.287" width="3.328" height="3.328" fill="white"/>
<rect x="332.16" y="170.624" width="3.328" height="3.328" fill="white"/>
<rect width="3.328" height="3.328" transform="matrix(-1 0 0 1 345.47 173.952)" fill="white"/>
<rect width="3.328" height="3.328" transform="matrix(-1 0 0 1 347.135 172.287)" fill="white"/>
<rect width="3.328" height="3.328" transform="matrix(-1 0 0 1 348.8 170.624)" fill="white"/>
<rect width="3.328" height="3.328" transform="matrix(-1 0 0 1 352.13 180.607)" fill="white"/>
<rect width="3.328" height="3.328" transform="matrix(-1 0 0 1 353.79 178.943)" fill="white"/>
<rect width="3.328" height="3.328" transform="matrix(-1 0 0 1 355.455 177.28)" fill="white"/>
<rect width="3.328" height="3.328" transform="matrix(-1 0 0 1 335.49 197.247)" fill="white"/>
<rect width="3.328" height="3.328" transform="matrix(-1 0 0 1 337.15 195.584)" fill="white"/>
<rect width="3.328" height="3.328" transform="matrix(-1 0 0 1 338.815 193.92)" fill="white"/>
<rect width="3.328" height="3.328" transform="matrix(-1 0 0 1 328.83 190.593)" fill="white"/>
<rect width="3.328" height="3.328" transform="matrix(-1 0 0 1 330.495 188.928)" fill="white"/>
<rect width="3.328" height="3.328" transform="matrix(-1 0 0 1 332.16 187.264)" fill="white"/>
<rect x="19.2001" y="404.48" width="10.24" height="10.24" fill="white"/>
<rect x="23.04" y="396.801" width="2.56" height="25.6" fill="white"/>
<rect x="11.52" y="410.881" width="2.56" height="25.6" transform="rotate(-90 11.52 410.881)" fill="white"/>
<rect x="15.36" y="405.761" width="2.56" height="2.56" fill="white"/>
<rect x="14.0801" y="404.48" width="2.56" height="2.56" fill="white"/>
<rect x="12.8" y="403.201" width="2.56" height="2.56" fill="white"/>
<rect x="33.28" y="413.44" width="2.56" height="2.56" fill="white"/>
<rect x="32" y="412.161" width="2.56" height="2.56" fill="white"/>
<rect x="30.72" y="410.881" width="2.56" height="2.56" fill="white"/>
<rect x="28.16" y="418.561" width="2.56" height="2.56" fill="white"/>
<rect x="26.88" y="417.281" width="2.56" height="2.56" fill="white"/>
<rect x="25.6" y="416.001" width="2.56" height="2.56" fill="white"/>
<rect x="20.48" y="400.641" width="2.56" height="2.56" fill="white"/>
<rect x="19.2001" y="399.36" width="2.56" height="2.56" fill="white"/>
<rect x="17.92" y="398.081" width="2.56" height="2.56" fill="white"/>
<rect width="2.56" height="2.56" transform="matrix(-1 0 0 1 28.16 400.641)" fill="white"/>
<rect width="2.56" height="2.56" transform="matrix(-1 0 0 1 29.4401 399.36)" fill="white"/>
<rect width="2.56" height="2.56" transform="matrix(-1 0 0 1 30.72 398.081)" fill="white"/>
<rect width="2.56" height="2.56" transform="matrix(-1 0 0 1 33.28 405.761)" fill="white"/>
<rect width="2.56" height="2.56" transform="matrix(-1 0 0 1 34.5601 404.48)" fill="white"/>
<rect width="2.56" height="2.56" transform="matrix(-1 0 0 1 35.84 403.201)" fill="white"/>
<rect width="2.56" height="2.56" transform="matrix(-1 0 0 1 20.48 418.561)" fill="white"/>
<rect width="2.56" height="2.56" transform="matrix(-1 0 0 1 21.76 417.281)" fill="white"/>
<rect width="2.56" height="2.56" transform="matrix(-1 0 0 1 23.04 416.001)" fill="white"/>
<rect width="2.56" height="2.56" transform="matrix(-1 0 0 1 15.36 413.44)" fill="white"/>
<rect width="2.56" height="2.56" transform="matrix(-1 0 0 1 16.64 412.161)" fill="white"/>
<rect width="2.56" height="2.56" transform="matrix(-1 0 0 1 17.92 410.881)" fill="white"/>
<rect x="173.44" y="86.4033" width="15.36" height="15.36" fill="white"/>
<rect x="175.36" y="84.4805" width="11.52" height="19.2" fill="white"/>
<rect x="171.52" y="87.3584" width="19.2" height="12.48" fill="white"/>
</svg>
