<svg width="135" height="270" viewBox="0 0 135 270" fill="none" xmlns="http://www.w3.org/2000/svg">
<rect x="30" y="15" width="75" height="90" fill="white"/>
<rect x="15" y="105" width="105" height="60" fill="white"/>
<rect x="15" y="180" width="105" height="75" fill="white"/>
<rect y="195" width="135" height="45" fill="white"/>
<rect x="45" width="45" height="105" fill="white"/>
<rect x="61" y="57" width="12" height="3" fill="#373737"/>
<rect x="58" y="54" width="3" height="3" fill="#373737"/>
<rect x="73" y="54" width="3" height="3" fill="#373737"/>
<rect x="55.0073" y="36.25" width="13.7527" height="4.12582" fill="#DA844B"/>
<rect x="51.5571" y="40.3745" width="13.7527" height="4.12582" fill="#DA844B"/>
<rect x="48.125" y="44.4995" width="13.7527" height="4.12582" fill="#DA844B"/>
<rect x="44" y="32.1245" width="12.3775" height="8.25165" fill="#373737"/>
<rect x="48.1248" y="28" width="8.25165" height="4.12582" fill="#373737"/>
<rect x="77.0078" y="32.1245" width="12.3775" height="8.25165" fill="#373737"/>
<rect x="81.1326" y="28" width="8.25165" height="4.12582" fill="#373737"/>
<rect x="30" y="105" width="75" height="90" fill="white"/>
<rect x="67" y="121" width="4" height="4" fill="#373737"/>
<rect x="67" y="133" width="4" height="4" fill="#373737"/>
<rect x="67" y="145" width="4" height="4" fill="#373737"/>
<rect x="30" y="180" width="75" height="90" fill="white"/>
<rect x="30" y="165" width="75" height="15" fill="#D9D9D9"/>
<rect x="30" y="255" width="75" height="15" fill="#D9D9D9"/>
<rect x="105" y="165" width="60" height="15" transform="rotate(-90 105 165)" fill="#D9D9D9"/>
<rect x="105" y="255" width="75" height="15" transform="rotate(-90 105 255)" fill="#D9D9D9"/>
<rect x="120" y="240" width="45" height="15" transform="rotate(-90 120 240)" fill="#D9D9D9"/>
<rect x="45" y="75" width="15" height="15" fill="#C42218"/>
<rect x="30" y="75" width="15" height="15" fill="#C42218"/>
<rect x="45" y="90" width="15" height="15" fill="#C42218"/>
<rect x="60" y="90" width="15" height="15" fill="#C42218"/>
<rect x="75" y="90" width="15" height="15" fill="#C42218"/>
<rect x="75" y="75" width="15" height="15" fill="#C42218"/>
<rect x="90" y="75" width="15" height="15" fill="#C42218"/>
<rect x="105" y="75" width="15" height="15" fill="#C42218"/>
</svg>
