<svg width="480" height="317" viewBox="0 0 480 317" fill="none" xmlns="http://www.w3.org/2000/svg">
<rect x="334.08" y="294.4" width="16.64" height="16.64" fill="white"/>
<rect x="337.92" y="289.28" width="8.96" height="16.64" fill="white"/>
<rect x="337.92" y="299.521" width="8.96" height="16.64" fill="white"/>
<rect x="328.96" y="307.2" width="8.96" height="16.64" transform="rotate(-90 328.96 307.2)" fill="white"/>
<rect x="339.2" y="307.2" width="8.96" height="16.64" transform="rotate(-90 339.2 307.2)" fill="white"/>
<rect x="26.7" y="70.2119" width="11.8868" height="11.8835" fill="white"/>
<rect x="29.44" y="66.5596" width="6.40059" height="11.8835" fill="white"/>
<rect x="29.44" y="73.876" width="6.40059" height="11.8835" fill="white"/>
<rect x="23.04" y="79.3604" width="6.39881" height="11.8868" transform="rotate(-90 23.04 79.3604)" fill="white"/>
<rect x="30.355" y="79.3604" width="6.39881" height="11.8868" transform="rotate(-90 30.355 79.3604)" fill="white"/>
<rect x="465.92" y="168.96" width="14.08" height="25.6" fill="white"/>
<rect x="463.36" y="171.521" width="2.56" height="20.48" fill="white"/>
<rect x="460.8" y="174.08" width="2.56" height="15.36" fill="white"/>
<rect x="400.385" y="9.9834" width="13.312" height="13.312" fill="white"/>
<rect x="405.375" width="3.328" height="33.28" fill="white"/>
<rect x="390.4" y="18.3037" width="3.328" height="33.28" transform="rotate(-90 390.4 18.3037)" fill="white"/>
<rect x="395.39" y="11.6475" width="3.328" height="3.328" fill="white"/>
<rect x="393.73" y="9.9834" width="3.328" height="3.328" fill="white"/>
<rect x="392.065" y="8.32031" width="3.328" height="3.328" fill="white"/>
<rect x="418.69" y="21.6328" width="3.328" height="3.328" fill="white"/>
<rect x="417.025" y="19.9678" width="3.328" height="3.328" fill="white"/>
<rect x="415.36" y="18.3037" width="3.328" height="3.328" fill="white"/>
<rect x="412.03" y="28.2871" width="3.328" height="3.328" fill="white"/>
<rect x="410.37" y="26.624" width="3.328" height="3.328" fill="white"/>
<rect x="408.705" y="24.96" width="3.328" height="3.328" fill="white"/>
<rect x="402.05" y="4.99219" width="3.328" height="3.328" fill="white"/>
<rect x="400.385" y="3.32715" width="3.328" height="3.328" fill="white"/>
<rect x="398.72" y="1.66406" width="3.328" height="3.328" fill="white"/>
<rect width="3.328" height="3.328" transform="matrix(-1 0 0 1 412.03 4.99219)" fill="white"/>
<rect width="3.328" height="3.328" transform="matrix(-1 0 0 1 413.695 3.32715)" fill="white"/>
<rect width="3.328" height="3.328" transform="matrix(-1 0 0 1 415.36 1.66406)" fill="white"/>
<rect width="3.328" height="3.328" transform="matrix(-1 0 0 1 418.69 11.6475)" fill="white"/>
<rect width="3.328" height="3.328" transform="matrix(-1 0 0 1 420.35 9.9834)" fill="white"/>
<rect width="3.328" height="3.328" transform="matrix(-1 0 0 1 422.015 8.32031)" fill="white"/>
<rect width="3.328" height="3.328" transform="matrix(-1 0 0 1 402.05 28.2871)" fill="white"/>
<rect width="3.328" height="3.328" transform="matrix(-1 0 0 1 403.71 26.624)" fill="white"/>
<rect width="3.328" height="3.328" transform="matrix(-1 0 0 1 405.375 24.96)" fill="white"/>
<rect width="3.328" height="3.328" transform="matrix(-1 0 0 1 395.39 21.6328)" fill="white"/>
<rect width="3.328" height="3.328" transform="matrix(-1 0 0 1 397.055 19.9678)" fill="white"/>
<rect width="3.328" height="3.328" transform="matrix(-1 0 0 1 398.72 18.3037)" fill="white"/>
<rect x="102.4" y="232.96" width="10.24" height="10.24" fill="white"/>
<rect x="106.24" y="225.28" width="2.56" height="25.6" fill="white"/>
<rect x="94.72" y="239.36" width="2.56" height="25.6" transform="rotate(-90 94.72 239.36)" fill="white"/>
<rect x="98.56" y="234.24" width="2.56" height="2.56" fill="white"/>
<rect x="97.28" y="232.96" width="2.56" height="2.56" fill="white"/>
<rect x="96" y="231.681" width="2.56" height="2.56" fill="white"/>
<rect x="116.48" y="241.92" width="2.56" height="2.56" fill="white"/>
<rect x="115.2" y="240.641" width="2.56" height="2.56" fill="white"/>
<rect x="113.92" y="239.36" width="2.56" height="2.56" fill="white"/>
<rect x="111.36" y="247.04" width="2.56" height="2.56" fill="white"/>
<rect x="110.08" y="245.761" width="2.56" height="2.56" fill="white"/>
<rect x="108.8" y="244.48" width="2.56" height="2.56" fill="white"/>
<rect x="103.68" y="229.12" width="2.56" height="2.56" fill="white"/>
<rect x="102.4" y="227.84" width="2.56" height="2.56" fill="white"/>
<rect x="101.12" y="226.561" width="2.56" height="2.56" fill="white"/>
<rect width="2.56" height="2.56" transform="matrix(-1 0 0 1 111.36 229.12)" fill="white"/>
<rect width="2.56" height="2.56" transform="matrix(-1 0 0 1 112.64 227.84)" fill="white"/>
<rect width="2.56" height="2.56" transform="matrix(-1 0 0 1 113.92 226.561)" fill="white"/>
<rect width="2.56" height="2.56" transform="matrix(-1 0 0 1 116.48 234.24)" fill="white"/>
<rect width="2.56" height="2.56" transform="matrix(-1 0 0 1 117.76 232.96)" fill="white"/>
<rect width="2.56" height="2.56" transform="matrix(-1 0 0 1 119.04 231.681)" fill="white"/>
<rect width="2.56" height="2.56" transform="matrix(-1 0 0 1 103.68 247.04)" fill="white"/>
<rect width="2.56" height="2.56" transform="matrix(-1 0 0 1 104.96 245.761)" fill="white"/>
<rect width="2.56" height="2.56" transform="matrix(-1 0 0 1 106.24 244.48)" fill="white"/>
<rect width="2.56" height="2.56" transform="matrix(-1 0 0 1 98.56 241.92)" fill="white"/>
<rect width="2.56" height="2.56" transform="matrix(-1 0 0 1 99.84 240.641)" fill="white"/>
<rect width="2.56" height="2.56" transform="matrix(-1 0 0 1 101.12 239.36)" fill="white"/>
<rect x="231.04" y="141.442" width="15.36" height="15.36" fill="white"/>
<rect x="232.96" y="139.52" width="11.52" height="19.2" fill="white"/>
<rect x="229.12" y="142.397" width="19.2" height="12.48" fill="white"/>
</svg>
