<svg width="375" height="247" viewBox="0 0 375 247" fill="none" xmlns="http://www.w3.org/2000/svg">
<rect x="261" y="230" width="13" height="13" fill="white"/>
<rect x="264" y="226" width="7" height="13" fill="white"/>
<rect x="264" y="234" width="7" height="13" fill="white"/>
<rect x="257" y="240" width="7" height="13" transform="rotate(-90 257 240)" fill="white"/>
<rect x="265" y="240" width="7" height="13" transform="rotate(-90 265 240)" fill="white"/>
<rect x="20.8594" y="54.8535" width="9.28658" height="9.28399" fill="white"/>
<rect x="23" y="52" width="5.00046" height="9.28399" fill="white"/>
<rect x="23" y="57.7158" width="5.00046" height="9.28399" fill="white"/>
<rect x="18" y="62.001" width="4.99907" height="9.28658" transform="rotate(-90 18 62.001)" fill="white"/>
<rect x="23.7148" y="62.001" width="4.99907" height="9.28658" transform="rotate(-90 23.7148 62.001)" fill="white"/>
<rect x="364" y="132" width="11" height="20" fill="white"/>
<rect x="362" y="134" width="2" height="16" fill="white"/>
<rect x="360" y="136" width="2" height="12" fill="white"/>
<rect x="312.801" y="7.7998" width="10.4" height="10.4" fill="white"/>
<rect x="316.699" width="2.6" height="26" fill="white"/>
<rect x="305" y="14.2998" width="2.6" height="26" transform="rotate(-90 305 14.2998)" fill="white"/>
<rect x="308.898" y="9.09961" width="2.6" height="2.6" fill="white"/>
<rect x="307.602" y="7.7998" width="2.6" height="2.6" fill="white"/>
<rect x="306.301" y="6.5" width="2.6" height="2.6" fill="white"/>
<rect x="327.102" y="16.9004" width="2.6" height="2.6" fill="white"/>
<rect x="325.801" y="15.5996" width="2.6" height="2.6" fill="white"/>
<rect x="324.5" y="14.2998" width="2.6" height="2.6" fill="white"/>
<rect x="321.898" y="22.0996" width="2.6" height="2.6" fill="white"/>
<rect x="320.602" y="20.7998" width="2.6" height="2.6" fill="white"/>
<rect x="319.301" y="19.5" width="2.6" height="2.6" fill="white"/>
<rect x="314.102" y="3.90039" width="2.6" height="2.6" fill="white"/>
<rect x="312.801" y="2.59961" width="2.6" height="2.6" fill="white"/>
<rect x="311.5" y="1.2998" width="2.6" height="2.6" fill="white"/>
<rect width="2.6" height="2.6" transform="matrix(-1 0 0 1 321.898 3.90039)" fill="white"/>
<rect width="2.6" height="2.6" transform="matrix(-1 0 0 1 323.199 2.59961)" fill="white"/>
<rect width="2.6" height="2.6" transform="matrix(-1 0 0 1 324.5 1.2998)" fill="white"/>
<rect width="2.6" height="2.6" transform="matrix(-1 0 0 1 327.102 9.09961)" fill="white"/>
<rect width="2.6" height="2.6" transform="matrix(-1 0 0 1 328.398 7.7998)" fill="white"/>
<rect width="2.6" height="2.6" transform="matrix(-1 0 0 1 329.699 6.5)" fill="white"/>
<rect width="2.6" height="2.6" transform="matrix(-1 0 0 1 314.102 22.0996)" fill="white"/>
<rect width="2.6" height="2.6" transform="matrix(-1 0 0 1 315.398 20.7998)" fill="white"/>
<rect width="2.6" height="2.6" transform="matrix(-1 0 0 1 316.699 19.5)" fill="white"/>
<rect width="2.6" height="2.6" transform="matrix(-1 0 0 1 308.898 16.9004)" fill="white"/>
<rect width="2.6" height="2.6" transform="matrix(-1 0 0 1 310.199 15.5996)" fill="white"/>
<rect width="2.6" height="2.6" transform="matrix(-1 0 0 1 311.5 14.2998)" fill="white"/>
<rect x="80" y="182" width="8" height="8" fill="white"/>
<rect x="83" y="176" width="2" height="20" fill="white"/>
<rect x="74" y="187" width="2" height="20" transform="rotate(-90 74 187)" fill="white"/>
<rect x="77" y="183" width="2" height="2" fill="white"/>
<rect x="76" y="182" width="2" height="2" fill="white"/>
<rect x="75" y="181" width="2" height="2" fill="white"/>
<rect x="91" y="189" width="2" height="2" fill="white"/>
<rect x="90" y="188" width="2" height="2" fill="white"/>
<rect x="89" y="187" width="2" height="2" fill="white"/>
<rect x="87" y="193" width="2" height="2" fill="white"/>
<rect x="86" y="192" width="2" height="2" fill="white"/>
<rect x="85" y="191" width="2" height="2" fill="white"/>
<rect x="81" y="179" width="2" height="2" fill="white"/>
<rect x="80" y="178" width="2" height="2" fill="white"/>
<rect x="79" y="177" width="2" height="2" fill="white"/>
<rect width="2" height="2" transform="matrix(-1 0 0 1 87 179)" fill="white"/>
<rect width="2" height="2" transform="matrix(-1 0 0 1 88 178)" fill="white"/>
<rect width="2" height="2" transform="matrix(-1 0 0 1 89 177)" fill="white"/>
<rect width="2" height="2" transform="matrix(-1 0 0 1 91 183)" fill="white"/>
<rect width="2" height="2" transform="matrix(-1 0 0 1 92 182)" fill="white"/>
<rect width="2" height="2" transform="matrix(-1 0 0 1 93 181)" fill="white"/>
<rect width="2" height="2" transform="matrix(-1 0 0 1 81 193)" fill="white"/>
<rect width="2" height="2" transform="matrix(-1 0 0 1 82 192)" fill="white"/>
<rect width="2" height="2" transform="matrix(-1 0 0 1 83 191)" fill="white"/>
<rect width="2" height="2" transform="matrix(-1 0 0 1 77 189)" fill="white"/>
<rect width="2" height="2" transform="matrix(-1 0 0 1 78 188)" fill="white"/>
<rect width="2" height="2" transform="matrix(-1 0 0 1 79 187)" fill="white"/>
<rect x="180.5" y="110.502" width="12" height="12" fill="white"/>
<rect x="182" y="109" width="9" height="15" fill="white"/>
<rect x="179" y="111.248" width="15" height="9.75" fill="white"/>
</svg>
