<svg width="151" height="185" viewBox="0 0 151 185" fill="none" xmlns="http://www.w3.org/2000/svg">
<rect x="33.5555" width="67.1111" height="16.7778" fill="white"/>
<rect x="50.3333" y="16.7778" width="67.1111" height="16.7778" fill="white"/>
<rect x="33.5555" y="33.5552" width="83.8889" height="33.5555" fill="white"/>
<rect x="16.7778" y="67.1113" width="117.444" height="16.7778" fill="white"/>
<rect x="16.7778" y="167.777" width="117.444" height="16.7778" fill="#D9D9D9"/>
<rect y="83.8892" width="134.222" height="16.7778" fill="white"/>
<rect y="100.667" width="151" height="67.1111" fill="white"/>
<rect x="72.7052" y="115.208" width="4.47407" height="4.47407" fill="#373737"/>
<rect x="72.7052" y="128.63" width="4.47407" height="4.47407" fill="#373737"/>
<rect x="72.7052" y="142.053" width="4.47407" height="4.47407" fill="#373737"/>
<rect x="134.222" y="167.777" width="67.1111" height="16.7778" transform="rotate(-90 134.222 167.777)" fill="#D9D9D9"/>
<rect x="117.444" y="100.667" width="33.5555" height="16.7778" transform="rotate(-90 117.444 100.667)" fill="#D9D9D9"/>
<rect x="100.667" y="67.1113" width="16.7778" height="16.7778" transform="rotate(-90 100.667 67.1113)" fill="#D9D9D9"/>
<rect x="50.3344" y="67.1123" width="50.3333" height="16.7778" fill="#C42218"/>
<rect x="83.8899" y="83.8896" width="16.7778" height="16.7778" fill="#C42218"/>
<rect x="60.4" y="32.437" width="5.59259" height="5.59259" fill="#373737"/>
<rect x="69.3481" y="40.2666" width="8.94815" height="3.35556" fill="#E88E07"/>
<rect x="52.5704" y="39.1484" width="6.71111" height="3.35556" fill="#FF97B6"/>
<rect x="90.6" y="39.1484" width="6.71111" height="3.35556" fill="#FF97B6"/>
<rect x="81.6519" y="32.437" width="5.59259" height="5.59259" fill="#373737"/>
<rect x="67.1118" y="50.3325" width="14.5407" height="2.23704" fill="#373737"/>
<rect x="64.8748" y="48.0952" width="2.23704" height="2.23704" fill="#373737"/>
<rect x="81.6525" y="48.0952" width="2.23704" height="2.23704" fill="#373737"/>
</svg>
