<svg width="178" height="199" viewBox="0 0 178 199" fill="none" xmlns="http://www.w3.org/2000/svg">
<rect x="55.625" y="42.2749" width="66.75" height="55.625" fill="white"/>
<rect x="133.5" y="186.9" width="77.875" height="11.125" transform="rotate(-90 133.5 186.9)" fill="white"/>
<rect x="33.375" y="186.9" width="66.75" height="11.125" transform="rotate(-90 33.375 186.9)" fill="white"/>
<rect x="44.5" y="54.1411" width="89" height="33.375" fill="white"/>
<rect x="44.5" y="97.8999" width="89" height="100.125" fill="white"/>
<rect x="44.5" y="186.9" width="89" height="11.125" fill="#D9D9D9"/>
<rect x="133.5" y="186.9" width="77.875" height="11.125" transform="rotate(-90 133.5 186.9)" fill="#D9D9D9"/>
<rect x="122.375" y="120.15" width="22.25" height="11.125" transform="rotate(-90 122.375 120.15)" fill="#D9D9D9"/>
<rect x="122.375" y="76.3911" width="22.25" height="11.125" transform="rotate(-90 122.375 76.3911)" fill="#D9D9D9"/>
<rect x="22.25" y="109.024" width="22.25" height="11.125" fill="#4F2309"/>
<rect x="133.5" y="120.149" width="22.25" height="11.125" fill="#4F2309"/>
<rect x="144.625" y="97.8989" width="22.25" height="11.125" fill="#4F2309"/>
<rect x="155.75" y="86.7744" width="22.25" height="11.125" fill="#4F2309"/>
<rect x="144.625" y="120.149" width="22.25" height="11.125" transform="rotate(-90 144.625 120.149)" fill="#4F2309"/>
<rect x="155.75" y="97.8989" width="22.25" height="11.125" transform="rotate(-90 155.75 97.8989)" fill="#4F2309"/>
<rect x="11.125" y="97.8989" width="22.25" height="11.125" fill="#4F2309"/>
<rect y="86.7744" width="22.25" height="11.125" fill="#4F2309"/>
<rect x="11.125" y="86.7744" width="22.25" height="11.125" transform="rotate(-90 11.125 86.7744)" fill="#4F2309"/>
<rect x="63.0416" y="33.3745" width="55.625" height="11.125" fill="#9F1603"/>
<rect x="68.975" width="44.5" height="33.375" fill="#9F1603"/>
<rect x="102.35" width="11.125" height="33.375" fill="#690D00"/>
<rect x="71.2" y="54.1411" width="8.15833" height="1.48333" fill="#373737"/>
<rect x="96.4166" y="54.1411" width="8.15833" height="1.48333" fill="#373737"/>
<rect x="73.425" y="58.5908" width="3.70833" height="4.45" fill="#373737"/>
<rect x="87.5167" y="126.825" width="3.70833" height="4.45" fill="#373737"/>
<rect x="87.5167" y="141.658" width="3.70833" height="4.45" fill="#373737"/>
<rect x="87.5167" y="155.75" width="3.70833" height="4.45" fill="#373737"/>
<rect x="98.6417" y="58.5908" width="3.70833" height="4.45" fill="#373737"/>
<rect x="86.0333" y="66.0083" width="1.48333" height="6.675" fill="#373737"/>
<rect x="80.1" y="80.0996" width="18.5417" height="2.225" fill="#373737"/>
<rect x="100.125" y="97.8999" width="22.25" height="11.125" fill="#D9D9D9"/>
</svg>
