<svg width="141" height="196" viewBox="0 0 141 196" fill="none" xmlns="http://www.w3.org/2000/svg">
<rect x="20.0293" width="100.146" height="10.0146" fill="white"/>
<rect y="15.0225" width="140.205" height="60.0878" fill="white"/>
<rect x="130.19" y="15.0225" width="10.0146" height="60.0878" fill="#D9D9D9"/>
<rect x="10.0146" y="5.00781" width="120.176" height="80.1171" fill="white"/>
<rect x="120.958" y="5.00781" width="9.24428" height="80.1171" fill="#D9D9D9"/>
<rect x="60.0869" y="65.0918" width="15.022" height="5.00732" fill="#373737"/>
<rect x="55.0796" y="60.084" width="5.00732" height="5.00732" fill="#373737"/>
<rect x="75.1089" y="60.084" width="5.00732" height="5.00732" fill="#373737"/>
<rect x="53.4175" y="40.0566" width="16.6911" height="5.00732" fill="#E8B128"/>
<rect x="49.2317" y="45.0645" width="16.6911" height="5.00732" fill="#E8B128"/>
<rect x="45.0654" y="50.0713" width="16.6911" height="5.00732" fill="#E8B128"/>
<rect x="40.0599" y="35.0557" width="15.022" height="10.0146" fill="#373737"/>
<rect x="45.0672" y="30.0464" width="10.0146" height="5.00732" fill="#373737"/>
<rect x="80.1166" y="35.0557" width="15.022" height="10.0146" fill="#373737"/>
<rect x="85.124" y="30.0464" width="10.0146" height="5.00732" fill="#373737"/>
<rect x="30.043" y="90.1309" width="95.1345" height="80.1171" fill="white"/>
<rect x="50.0723" y="85.123" width="35.0512" height="10.0146" fill="white"/>
<rect x="20.0284" y="100.145" width="115.168" height="85.1244" fill="white"/>
<rect x="30.043" y="110.16" width="95.1391" height="85.1244" fill="white"/>
<rect x="115.167" y="90.1309" width="10.0146" height="95.1391" fill="#D9D9D9"/>
<rect x="125.182" y="100.145" width="10.0146" height="85.1244" fill="#D9D9D9"/>
<rect x="30.043" y="195.284" width="10.0146" height="95.1391" transform="rotate(-90 30.043 195.284)" fill="#D9D9D9"/>
<rect x="70.1016" y="120.174" width="5.00732" height="5.00732" fill="#373737"/>
<rect x="70.1016" y="135.196" width="5.00732" height="5.00732" fill="#373737"/>
<rect x="70.1016" y="150.217" width="5.00732" height="5.00732" fill="#373737"/>
<rect x="40.0599" y="85.123" width="25.0366" height="10.0146" fill="#A33838"/>
<rect x="75.1111" y="85.123" width="25.0366" height="10.0146" fill="#A33838"/>
<rect x="60.0891" y="90.1309" width="20.0293" height="10.0146" fill="#A33838"/>
<rect x="70.1038" y="100.145" width="20.0293" height="10.0146" fill="#A33838"/>
<rect x="30.0426" y="115.168" width="10.0146" height="10.0146" fill="#9E6017"/>
<rect x="40.0572" y="125.183" width="10.0146" height="10.0146" fill="#9E6017"/>
<rect x="45.0645" y="135.198" width="10.0146" height="10.0146" fill="#9E6017"/>
<rect x="50.0718" y="140.205" width="10.0146" height="10.0146" fill="#9E6017"/>
<rect x="35.0499" y="120.176" width="10.0146" height="10.0146" fill="#9E6017"/>
<rect x="30.0426" y="120.176" width="10.0146" height="10.0146" fill="#9E6017"/>
<rect width="10.0146" height="10.0146" transform="matrix(1 0 0 -1 105.153 125.183)" fill="#9E6017"/>
<rect width="10.0146" height="10.0146" transform="matrix(1 0 0 -1 95.1386 135.199)" fill="#9E6017"/>
<rect width="10.0146" height="10.0146" transform="matrix(1 0 0 -1 90.1313 145.212)" fill="#9E6017"/>
<rect width="10.0146" height="10.0146" transform="matrix(1 0 0 -1 85.1239 150.219)" fill="#9E6017"/>
<rect width="10.0146" height="10.0146" transform="matrix(1 0 0 -1 100.146 130.189)" fill="#9E6017"/>
</svg>
