<svg width="375" height="280" viewBox="0 0 375 280" fill="none" xmlns="http://www.w3.org/2000/svg">
<rect x="327" y="4" width="13" height="13" fill="white"/>
<rect x="330" width="7" height="13" fill="white"/>
<rect x="330" y="8" width="7" height="13" fill="white"/>
<rect x="323" y="14" width="7" height="13" transform="rotate(-90 323 14)" fill="white"/>
<rect x="331" y="14" width="7" height="13" transform="rotate(-90 331 14)" fill="white"/>
<rect x="181.859" y="193.854" width="9.28658" height="9.28399" fill="white"/>
<rect x="184" y="191" width="5.00046" height="9.28399" fill="white"/>
<rect x="184" y="196.716" width="5.00046" height="9.28399" fill="white"/>
<rect x="179" y="201.001" width="4.99907" height="9.28658" transform="rotate(-90 179 201.001)" fill="white"/>
<rect x="184.715" y="201.001" width="4.99907" height="9.28658" transform="rotate(-90 184.715 201.001)" fill="white"/>
<rect x="61" y="262" width="16" height="16" fill="white"/>
<rect x="63" y="260" width="12" height="14" fill="white"/>
<rect x="59" y="264" width="12" height="12" fill="white"/>
<rect x="63" y="266" width="12" height="14" fill="white"/>
<rect x="67" y="264" width="12" height="12" fill="white"/>
<rect x="31.8008" y="121.8" width="10.4" height="10.4" fill="white"/>
<rect x="35.6992" y="114" width="2.6" height="26" fill="white"/>
<rect x="24" y="128.3" width="2.6" height="26" transform="rotate(-90 24 128.3)" fill="white"/>
<rect x="27.8984" y="123.1" width="2.6" height="2.6" fill="white"/>
<rect x="26.6016" y="121.8" width="2.6" height="2.6" fill="white"/>
<rect x="25.3008" y="120.5" width="2.6" height="2.6" fill="white"/>
<rect x="46.1016" y="130.9" width="2.6" height="2.6" fill="white"/>
<rect x="44.8008" y="129.6" width="2.6" height="2.6" fill="white"/>
<rect x="43.5" y="128.3" width="2.6" height="2.6" fill="white"/>
<rect x="40.8984" y="136.1" width="2.6" height="2.6" fill="white"/>
<rect x="39.6016" y="134.8" width="2.6" height="2.6" fill="white"/>
<rect x="38.3008" y="133.5" width="2.6" height="2.6" fill="white"/>
<rect x="33.1016" y="117.9" width="2.6" height="2.6" fill="white"/>
<rect x="31.8008" y="116.6" width="2.6" height="2.6" fill="white"/>
<rect x="30.5" y="115.3" width="2.6" height="2.6" fill="white"/>
<rect width="2.6" height="2.6" transform="matrix(-1 0 0 1 40.8984 117.9)" fill="white"/>
<rect width="2.6" height="2.6" transform="matrix(-1 0 0 1 42.1992 116.6)" fill="white"/>
<rect width="2.6" height="2.6" transform="matrix(-1 0 0 1 43.5 115.3)" fill="white"/>
<rect width="2.6" height="2.6" transform="matrix(-1 0 0 1 46.1016 123.1)" fill="white"/>
<rect width="2.6" height="2.6" transform="matrix(-1 0 0 1 47.3984 121.8)" fill="white"/>
<rect width="2.6" height="2.6" transform="matrix(-1 0 0 1 48.6992 120.5)" fill="white"/>
<rect width="2.6" height="2.6" transform="matrix(-1 0 0 1 33.1016 136.1)" fill="white"/>
<rect width="2.6" height="2.6" transform="matrix(-1 0 0 1 34.3984 134.8)" fill="white"/>
<rect width="2.6" height="2.6" transform="matrix(-1 0 0 1 35.6992 133.5)" fill="white"/>
<rect width="2.6" height="2.6" transform="matrix(-1 0 0 1 27.8984 130.9)" fill="white"/>
<rect width="2.6" height="2.6" transform="matrix(-1 0 0 1 29.1992 129.6)" fill="white"/>
<rect width="2.6" height="2.6" transform="matrix(-1 0 0 1 30.5 128.3)" fill="white"/>
<rect x="312" y="227" width="8" height="8" fill="white"/>
<rect x="315" y="221" width="2" height="20" fill="white"/>
<rect x="306" y="232" width="2" height="20" transform="rotate(-90 306 232)" fill="white"/>
<rect x="309" y="228" width="2" height="2" fill="white"/>
<rect x="308" y="227" width="2" height="2" fill="white"/>
<rect x="307" y="226" width="2" height="2" fill="white"/>
<rect x="323" y="234" width="2" height="2" fill="white"/>
<rect x="322" y="233" width="2" height="2" fill="white"/>
<rect x="321" y="232" width="2" height="2" fill="white"/>
<rect x="319" y="238" width="2" height="2" fill="white"/>
<rect x="318" y="237" width="2" height="2" fill="white"/>
<rect x="317" y="236" width="2" height="2" fill="white"/>
<rect x="313" y="224" width="2" height="2" fill="white"/>
<rect x="312" y="223" width="2" height="2" fill="white"/>
<rect x="311" y="222" width="2" height="2" fill="white"/>
<rect width="2" height="2" transform="matrix(-1 0 0 1 319 224)" fill="white"/>
<rect width="2" height="2" transform="matrix(-1 0 0 1 320 223)" fill="white"/>
<rect width="2" height="2" transform="matrix(-1 0 0 1 321 222)" fill="white"/>
<rect width="2" height="2" transform="matrix(-1 0 0 1 323 228)" fill="white"/>
<rect width="2" height="2" transform="matrix(-1 0 0 1 324 227)" fill="white"/>
<rect width="2" height="2" transform="matrix(-1 0 0 1 325 226)" fill="white"/>
<rect width="2" height="2" transform="matrix(-1 0 0 1 313 238)" fill="white"/>
<rect width="2" height="2" transform="matrix(-1 0 0 1 314 237)" fill="white"/>
<rect width="2" height="2" transform="matrix(-1 0 0 1 315 236)" fill="white"/>
<rect width="2" height="2" transform="matrix(-1 0 0 1 309 234)" fill="white"/>
<rect width="2" height="2" transform="matrix(-1 0 0 1 310 233)" fill="white"/>
<rect width="2" height="2" transform="matrix(-1 0 0 1 311 232)" fill="white"/>
<rect x="235.5" y="84.502" width="12" height="12" fill="white"/>
<rect x="237" y="83" width="9" height="15" fill="white"/>
<rect x="234" y="85.248" width="15" height="9.75" fill="white"/>
</svg>
